<svg width="830" height="324" viewBox="0 0 830 324" fill="none" xmlns="http://www.w3.org/2000/svg">
<g clip-path="url(#clip0_400_432)">
<mask id="mask0_400_432" style="mask-type:luminance" maskUnits="userSpaceOnUse" x="615" y="94" width="57" height="62">
<path d="M619.19 108.92C619.19 113.98 622 117.92 627.56 120.65C620.23 123.12 615.6 129.39 615.6 137.11C615.6 143.23 618.48 148.16 623.92 151.39C629.76 154.86 636.66 155.38 640.25 155.38H640.5C652.85 155.1 665.31 149.36 665.3 137.14C665.3 133.13 663.85 128.96 660.99 124.75C666.16 123.04 671.69 120.33 671.69 114.77C671.69 111.98 669.81 109.67 666.66 108.6L665.72 108.28V111.14L665.98 111.35C666.53 111.81 666.77 112.38 666.77 113.2C666.77 116.39 660.84 118.04 654.56 119.8L653.98 119.96C646.32 122.08 635.84 124.98 635.84 132.57C635.84 135.26 637.76 137.53 640.74 138.38L641.53 138.6L641.85 135.87L641.54 135.62C640.98 135.18 640.67 134.52 640.67 133.77C640.67 131.39 644.65 129.18 652.46 127.21C652.75 127.16 653.07 127.07 653.36 126.99L653.4 126.98C656.27 130.37 657.84 134.34 657.85 138.18C657.85 147.52 649.16 151.89 641.1 151.99H640.85C636.1 151.99 631.78 150.62 628.68 148.14C625.28 145.42 623.49 141.49 623.49 136.77C623.49 129.65 627.78 124.22 634 123.29V124.56L638.48 120.41L637.41 120.01C630.37 117.33 627.09 113.88 627.09 109.16C627.09 101.54 633.37 98.13 639.63 98.13C642.54 98.13 645.32 98.74 647.69 99.92C650.257 104.473 652.823 109.053 655.39 113.66L655.59 114.02L658.55 114.06V98.85L658.12 98.67C652.29 96.22 645.18 94.75 639.05 94.75C634.39 94.75 619.2 95.77 619.19 108.92Z" fill="white"/>
</mask>
<g mask="url(#mask0_400_432)">
<path d="M615.6 155.38V94.75H671.69V155.38H615.6Z" fill="url(#paint0_linear_400_432)"/>
</g>
<mask id="mask1_400_432" style="mask-type:luminance" maskUnits="userSpaceOnUse" x="616" y="95" width="55" height="60">
<path d="M619.9 108.919C619.9 115.219 624.63 118.769 629.62 120.799C622 122.579 616.31 128.569 616.31 137.109C616.31 150.249 629.77 154.739 640.49 154.669C650.85 154.439 664.6 149.849 664.6 137.139C664.6 132.509 662.58 128.149 659.86 124.369C664.33 122.969 670.98 120.459 670.98 114.769C670.98 112.019 668.97 110.129 666.43 109.269C666.43 109.783 666.43 110.296 666.43 110.809C667.22 111.459 667.48 112.289 667.48 113.199C667.48 117.029 661.09 118.699 654.17 120.639C645.75 122.969 636.54 125.749 636.54 132.569C636.54 135.079 638.47 136.999 640.93 137.699C640.99 137.193 641.047 136.686 641.1 136.179C640.31 135.549 639.96 134.669 639.96 133.769C639.96 129.819 648.12 127.579 652.33 126.519C652.76 126.429 653.29 126.259 653.64 126.179C656.54 129.469 658.55 133.679 658.55 138.179C658.56 147.919 649.7 152.589 641.1 152.699C631.45 152.789 622.78 147.419 622.79 136.769C622.79 129.319 627.43 123.129 634.71 122.489C634.71 122.636 634.71 122.786 634.71 122.939C635.523 122.179 636.34 121.423 637.16 120.669C631.9 118.669 626.38 115.399 626.38 109.159C626.39 101.389 632.61 97.4092 639.62 97.4192C642.6 97.4192 645.58 98.0392 648.2 99.3892C650.807 104.003 653.41 108.643 656.01 113.309C656.617 113.323 657.23 113.333 657.85 113.339C657.843 108.666 657.84 103.993 657.84 99.3192C652.23 96.9592 645.14 95.4592 639.09 95.4492C639.077 95.4492 639.063 95.4492 639.05 95.4492C630.82 95.4492 619.9 98.2492 619.9 108.919Z" fill="white"/>
</mask>
<g mask="url(#mask1_400_432)">
<path d="M616.31 154.739V95.4492H670.98V154.739H616.31Z" fill="url(#paint1_linear_400_432)"/>
</g>
<mask id="mask2_400_432" style="mask-type:luminance" maskUnits="userSpaceOnUse" x="0" y="0" width="831" height="324">
<path d="M0 0H830.77V324H0V0Z" fill="white"/>
</mask>
<g mask="url(#mask2_400_432)">
<g style="mix-blend-mode:color-dodge" opacity="0.42">
<mask id="mask3_400_432" style="mask-type:luminance" maskUnits="userSpaceOnUse" x="617" y="96" width="53" height="58">
<path d="M617.35 153.549H669.95V96.5488H617.35V153.549Z" fill="white"/>
</mask>
<g mask="url(#mask3_400_432)">
<path d="M637.75 153.549C632.86 153.219 628.24 151.929 624.81 149.889C619.85 146.949 617.34 142.659 617.35 137.109C617.35 129.579 622.26 123.579 629.86 121.809L633.04 121.069L630.01 119.839C623.99 117.389 620.94 113.719 620.94 108.919C620.94 98.7688 631.68 96.8588 637.15 96.5488C630.94 97.3688 625.35 101.359 625.35 109.159C625.35 114.249 628.59 118.139 635.26 121.019L634.8 121.439L634.61 121.459C627.04 122.129 621.75 128.419 621.75 136.769C621.75 142.039 623.77 146.439 627.59 149.499C630.3 151.669 633.83 153.069 637.75 153.549ZM647.76 152.739C654.21 150.809 659.59 146.079 659.59 138.179C659.59 133.789 657.75 129.279 654.42 125.499L654.01 125.029L653.41 125.169C653.257 125.209 653.087 125.255 652.9 125.309C652.65 125.379 652.37 125.449 652.13 125.499C645.95 127.049 638.93 129.389 638.93 133.769C638.93 134.575 639.127 135.295 639.52 135.929C638.3 135.119 637.58 133.909 637.58 132.569C637.58 126.789 645.56 124.099 654.44 121.639L655.02 121.469C662.26 119.459 668.52 117.709 668.52 113.199C668.52 112.485 668.38 111.849 668.1 111.289C669.07 112.009 669.95 113.119 669.95 114.769C669.95 119.529 664.39 121.869 659.56 123.379L658.18 123.809L659.02 124.979C662.03 129.159 663.56 133.249 663.56 137.139C663.57 146.579 655.44 151.019 647.76 152.739ZM656.62 112.289C654.113 107.789 651.61 103.319 649.11 98.8788L648.95 98.5988L648.67 98.4588C647.14 97.6788 645.46 97.1088 643.68 96.7588C648.11 97.2588 652.81 98.4088 656.81 100.019V112.289H656.62Z" fill="url(#paint2_linear_400_432)"/>
</g>
</g>
<g style="mix-blend-mode:color-dodge">
<mask id="mask4_400_432" style="mask-type:luminance" maskUnits="userSpaceOnUse" x="616" y="95" width="55" height="60">
<path d="M616.31 154.669H670.98V95.4492H616.31V154.669Z" fill="white"/>
</mask>
<g mask="url(#mask4_400_432)">
<path d="M659.86 124.369C662.58 128.149 664.59 132.509 664.6 137.139C664.6 149.849 650.85 154.439 640.49 154.669C629.77 154.729 616.31 150.249 616.31 137.109C616.31 128.569 622 122.579 629.62 120.799C624.63 118.769 619.9 115.219 619.9 108.919C619.9 98.2292 630.86 95.4392 639.09 95.4492C645.14 95.4592 652.23 96.9592 657.84 99.3192C657.84 103.993 657.843 108.666 657.85 113.339C657.237 113.333 656.623 113.323 656.01 113.309C653.403 108.643 650.8 103.999 648.2 99.3792C645.58 98.0392 642.6 97.4192 639.62 97.4192C632.61 97.4092 626.38 101.389 626.38 109.159C626.38 115.399 631.9 118.669 637.16 120.669C636.34 121.423 635.52 122.179 634.7 122.939C634.7 122.786 634.7 122.636 634.7 122.489C627.43 123.129 622.79 129.319 622.79 136.769C622.78 147.419 631.45 152.789 641.1 152.699C649.7 152.589 658.56 147.919 658.55 138.179C658.55 133.679 656.54 129.469 653.64 126.179C653.29 126.259 652.76 126.429 652.33 126.519C648.12 127.579 639.96 129.819 639.96 133.769C639.96 134.669 640.31 135.549 641.1 136.179C641.047 136.686 640.99 137.193 640.93 137.699C638.47 136.999 636.54 135.079 636.54 132.569C636.54 125.749 645.75 122.969 654.17 120.639C661.09 118.699 667.48 117.029 667.48 113.199C667.48 112.289 667.22 111.459 666.43 110.809C666.43 110.296 666.43 109.779 666.43 109.259C668.97 110.129 670.98 112.019 670.98 114.769C670.98 120.459 664.33 122.969 659.86 124.369Z" fill="url(#paint3_linear_400_432)"/>
</g>
</g>
</g>
<mask id="mask5_400_432" style="mask-type:luminance" maskUnits="userSpaceOnUse" x="179" y="8" width="124" height="137">
<path d="M273.89 9.88039L274.5 11.9304C276.726 19.4104 278.956 26.8737 281.19 34.3204C273.6 54.5304 266.56 74.2904 258.82 96.1604C256.02 103.95 253.39 111.52 250.61 119.54L249.8 121.86C235.04 86.9904 221.49 54.2104 208.41 21.8304C210.776 18.8571 213.143 15.9037 215.51 12.9704L215.88 12.5104V8.53039H179.8V12.7704L181.47 14.8004C183.59 17.2204 187.83 22.2404 189.04 23.6704C189.086 23.7304 189.136 23.7904 189.19 23.8504C204.65 62.6604 220.75 101.82 238.39 143.55L238.87 144.67L240.07 144.57C245.616 144.144 251.166 143.74 256.72 143.36L258.29 143.25V139.38L254.7 132.85L257.77 124.05C259.92 117.85 262.05 111.73 264.28 105.43C271.67 83.5204 279.89 60.5604 288.69 37.2304C291.02 31.5904 293.93 25.7204 296.76 20.0504L297.99 17.5604C298.516 16.6271 299.013 15.6937 299.48 14.7604C299.933 13.8604 300.41 12.9604 300.91 12.0604L300.97 11.9704L302.43 8.40039L273.89 9.88039Z" fill="white"/>
</mask>
<g mask="url(#mask5_400_432)">
<path d="M179.8 144.67V8.40039H302.43V144.67H179.8Z" fill="url(#paint4_linear_400_432)"/>
</g>
<mask id="mask6_400_432" style="mask-type:luminance" maskUnits="userSpaceOnUse" x="288" y="19" width="98" height="124">
<path d="M337.85 49.5905C365.49 49.5905 385.55 68.9805 385.55 95.6805C385.55 122.581 365.74 141.921 337.37 142.721C336.73 142.741 336.093 142.751 335.46 142.751C322.14 142.751 310.14 138.361 301.68 130.381C292.93 122.131 288.31 110.731 288.32 97.4106C288.35 69.4306 308.51 49.7705 337.36 49.5905H337.85ZM336.32 134.951C336.633 134.951 336.953 134.947 337.28 134.941C357.53 134.401 366.75 114.261 366.75 95.7606C366.75 86.1506 364.23 76.7005 359.84 69.8405C356.2 64.1605 349.4 57.3905 337.65 57.3905H337.39C316.61 57.5605 307.14 78.0005 307.12 96.9205C307.11 106.531 309.68 115.951 314.17 122.771C317.83 128.331 324.65 134.951 336.32 134.951ZM338.12 19.8105L338.62 20.3305C345.56 27.6905 352.503 35.0305 359.45 42.3505L360.6 43.5605L355.08 48.8905C355.08 48.8905 342.63 40.4505 336.97 36.6105C331.237 40.5172 325.506 44.4472 319.78 48.4005L318.57 49.2405L313.63 43.8105L314.66 42.6805C321.48 35.1939 328.296 27.7505 335.11 20.3505L335.61 19.8105H338.12Z" fill="white"/>
</mask>
<g mask="url(#mask6_400_432)">
<path d="M288.31 142.751V19.8008H385.55V142.751H288.31Z" fill="url(#paint5_linear_400_432)"/>
</g>
<mask id="mask7_400_432" style="mask-type:luminance" maskUnits="userSpaceOnUse" x="439" y="35" width="46" height="110">
<path d="M460.81 36.6801C455.6 45.7601 451.31 50.5301 441.03 53.0501L439.75 53.4101V60.3701L447.89 60.4601L447.92 110.61C447.93 129.85 461.25 142.75 482.67 144.26L484.47 144.39V137.67L483.04 137.46C468.85 135.34 466.73 121.01 466.72 112.65L466.68 60.7101C471.807 60.7834 476.933 60.8667 482.06 60.9601L483.78 60.9901L483.77 53.3501L482.12 53.3201C476.973 53.2401 471.823 53.1634 466.67 53.0901L466.66 35.8701L461.3 35.8301L460.81 36.6801Z" fill="white"/>
</mask>
<g mask="url(#mask7_400_432)">
<path d="M439.75 144.39V35.8301H484.47V144.39H439.75Z" fill="url(#paint6_linear_400_432)"/>
</g>
<mask id="mask8_400_432" style="mask-type:luminance" maskUnits="userSpaceOnUse" x="486" y="38" width="115" height="111">
<path d="M582.04 40.9199C580.06 42.7699 578.97 45.3699 578.98 48.2499C578.98 52.9599 581.95 56.8299 586.53 58.3399C585.74 59.9299 583.76 61.2799 581.72 61.8899L581.71 55.6599L555.44 57.7299V61.6099L555.86 62.0899C558.22 64.7633 560.583 67.4499 562.95 70.1499L562.97 115.8C553.25 131.68 543.52 139.4 533.24 139.4C532.727 139.4 532.21 139.38 531.69 139.34C516.44 138.23 513.23 125.23 513.22 114.52L513.16 53.7399L511.34 53.8899C503.7 54.5499 496.057 55.2166 488.41 55.8899L486.87 56.0299L486.88 59.8599C486.88 59.8599 492.03 65.4299 494.39 67.9899L494.43 112.17C494.44 131.8 508.24 145.52 529.57 147.14C530.643 147.22 531.697 147.26 532.73 147.26C544.04 147.26 553.78 142.59 563.12 132.61C563.13 132.76 563.46 136.71 563.46 136.71C563.65 138.94 563.82 141.04 563.82 142.71C563.82 143.31 563.82 143.82 563.65 144.7L563.28 146.53L565.14 146.7C572.42 147.36 579.697 148.06 586.97 148.8L588.82 148.99V144.81L588.45 144.35C586.143 141.45 583.837 138.57 581.53 135.71L581.52 97.4599C581.71 88.0799 581.72 78.4199 581.72 69.0299C592.11 68.4099 600.04 58.3399 600.04 49.6299C600.04 42.7999 595.96 38.2999 589.65 38.1699H589.38C586.54 38.1699 583.93 39.1499 582.04 40.9199Z" fill="white"/>
</mask>
<g mask="url(#mask8_400_432)">
<path d="M486.87 148.99V38.1699H600.04V148.99H486.87Z" fill="url(#paint7_linear_400_432)"/>
</g>
<mask id="mask9_400_432" style="mask-type:luminance" maskUnits="userSpaceOnUse" x="181" y="10" width="119" height="133">
<path d="M276.11 11.4409C278.397 19.1143 280.683 26.7609 282.97 34.3809C275.23 54.9409 267.92 75.4909 260.4 96.7209C256.85 106.611 253.5 116.331 249.95 126.541C235.47 92.3609 220.99 57.4909 206.49 21.5409C209.057 18.3143 211.627 15.1043 214.2 11.9109C214.2 11.3443 214.2 10.7776 214.2 10.2109H181.48V12.1709C181.893 12.6776 182.31 13.1843 182.73 13.6909C185.23 16.5309 190.65 22.9809 190.65 22.9709C207.1 64.2709 223.52 104.051 239.94 142.891C245.493 142.464 251.05 142.061 256.61 141.681C256.61 141.061 256.61 140.438 256.61 139.811C255.363 137.544 254.113 135.278 252.86 133.011C256.21 123.441 259.34 114.351 262.68 104.891C270.41 81.9909 278.77 58.7509 287.13 36.5909C289.85 30.0109 293.4 23.0509 296.53 16.7309C297.57 14.8909 298.41 13.0609 299.45 11.2309C299.59 10.8909 299.73 10.5509 299.87 10.2109C291.95 10.6176 284.03 11.0276 276.11 11.4409Z" fill="white"/>
</mask>
<g mask="url(#mask9_400_432)">
<path d="M181.48 142.891V10.2109H299.87V142.891H181.48Z" fill="url(#paint8_linear_400_432)"/>
</g>
<mask id="mask10_400_432" style="mask-type:luminance" maskUnits="userSpaceOnUse" x="290" y="21" width="94" height="121">
<path d="M337.85 51.2705C364.91 51.2705 383.87 69.8205 383.87 95.6805C383.87 121.73 364.66 140.27 337.32 141.04C309.98 141.87 289.98 124.47 290 97.4105C290.03 70.1705 310.06 51.4405 337.37 51.2705C337.53 51.2705 337.69 51.2705 337.85 51.2705ZM336.32 136.63C336.647 136.63 336.98 136.624 337.32 136.61C359.45 136.03 368.43 113.81 368.43 95.7605C368.43 77.5405 359.47 55.5205 337.37 55.7005C315.06 55.8805 305.45 78.0105 305.43 96.9105C305.42 115.37 314.71 136.63 336.32 136.63ZM337.39 21.4805C344.33 28.8405 351.277 36.1838 358.23 43.5105C357.117 44.5838 356.003 45.6571 354.89 46.7305C348.91 42.6838 342.933 38.6305 336.96 34.5705C330.913 38.6905 324.867 42.8371 318.82 47.0105C317.847 45.9438 316.873 44.8771 315.9 43.8105C322.713 36.3238 329.53 28.8838 336.35 21.4905C336.697 21.4905 337.043 21.4871 337.39 21.4805Z" fill="white"/>
</mask>
<g mask="url(#mask10_400_432)">
<path d="M289.98 141.87V21.4805H383.87V141.87H289.98Z" fill="url(#paint9_linear_400_432)"/>
</g>
<mask id="mask11_400_432" style="mask-type:luminance" maskUnits="userSpaceOnUse" x="441" y="37" width="42" height="106">
<path d="M441.43 54.6795C441.43 56.0262 441.43 57.3695 441.43 58.7095C444.144 58.7362 446.857 58.7662 449.57 58.7995C449.577 76.0662 449.587 93.3362 449.6 110.61C449.61 129.55 463.18 141.2 482.79 142.59C482.79 141.436 482.79 140.28 482.79 139.12C468.81 137.04 465.04 123.99 465.04 112.65C465.027 94.7695 465.014 76.8862 465 58.9995C470.7 59.0862 476.397 59.1795 482.09 59.2795C482.09 57.8529 482.09 56.4295 482.09 55.0095C476.39 54.9095 470.69 54.8229 464.99 54.7495C464.99 49.0162 464.987 43.2795 464.98 37.5395C464.08 37.5329 463.177 37.5262 462.27 37.5195C457.07 46.5795 452.48 51.9695 441.43 54.6795Z" fill="white"/>
</mask>
<g mask="url(#mask11_400_432)">
<path d="M441.43 142.59V37.5195H482.79V142.59H441.43Z" fill="url(#paint10_linear_400_432)"/>
</g>
<mask id="mask12_400_432" style="mask-type:luminance" maskUnits="userSpaceOnUse" x="488" y="39" width="111" height="109">
<path d="M580.66 48.2496C580.66 52.9796 584.2 56.3196 588.57 57.1196C588.37 60.7996 583.78 63.6396 580.04 63.9196C580.04 61.7729 580.037 59.6263 580.03 57.4796C572.397 58.0796 564.76 58.6796 557.12 59.2796C557.12 59.8463 557.12 60.4129 557.12 60.9796C559.627 63.8063 562.13 66.6496 564.63 69.5096C564.637 85.0963 564.643 100.683 564.65 116.27C557.58 127.93 546.56 142.15 531.56 141.02C516.36 139.91 511.55 127.72 511.54 114.53C511.52 94.8763 511.5 75.2229 511.48 55.5696C503.84 56.2229 496.2 56.8896 488.56 57.5696C488.56 58.1096 488.56 58.6529 488.56 59.1996C491.06 61.8996 493.563 64.6096 496.07 67.3296C496.083 82.2763 496.097 97.2229 496.11 112.17C496.13 131.79 510.11 143.98 529.69 145.46C544.9 146.6 555.51 139.16 564.45 128.58C564.66 130.73 564.87 133.51 565.08 135.86C565.29 138.43 565.5 140.79 565.5 142.7C565.5 143.34 565.5 143.98 565.3 145.02C572.58 145.68 579.857 146.38 587.13 147.12C587.13 146.546 587.13 145.973 587.13 145.4C584.71 142.346 582.283 139.313 579.85 136.3C579.85 123.34 579.847 110.38 579.84 97.4196C580.04 87.5596 580.04 77.4496 580.04 67.3596C590.45 67.8196 598.36 57.7196 598.36 49.6296C598.36 43.9696 595.24 39.9696 589.61 39.8496C589.53 39.8496 589.453 39.8496 589.38 39.8496C584.49 39.8496 580.65 43.1796 580.66 48.2496Z" fill="white"/>
</mask>
<g mask="url(#mask12_400_432)">
<path d="M488.56 147.12V39.8496H598.36V147.12H488.56Z" fill="url(#paint11_linear_400_432)"/>
</g>
<mask id="mask13_400_432" style="mask-type:luminance" maskUnits="userSpaceOnUse" x="0" y="0" width="831" height="324">
<path d="M0 0H830.77V324H0V0Z" fill="white"/>
</mask>
<g mask="url(#mask13_400_432)">
<g style="mix-blend-mode:color-dodge" opacity="0.42">
<mask id="mask14_400_432" style="mask-type:luminance" maskUnits="userSpaceOnUse" x="185" y="12" width="411" height="133">
<path d="M185.12 144.242H595.9V12.6816H185.12V144.242Z" fill="white"/>
</mask>
<g mask="url(#mask14_400_432)">
<path d="M241.52 140.302C224.12 99.1216 208.22 60.4316 192.94 22.0616L192.11 20.0016L191.51 20.1716C189.96 18.3416 187.02 14.8616 185.12 12.6816H210.42C208.47 15.1116 203.66 21.1316 203.66 21.1316L204.2 22.4716C217.9 56.4216 232.12 90.7716 247.68 127.502L250.18 133.392L250.21 133.302L253.58 139.422C249.56 139.702 245.54 139.995 241.52 140.302ZM279.36 13.7416C284.833 13.455 290.307 13.1716 295.78 12.8916C295.34 13.765 294.877 14.6416 294.39 15.5216L293.04 18.2016C290.43 23.4516 287.74 28.8616 285.47 34.1716C285.47 34.1716 281.35 20.4016 279.36 13.7416Z" fill="url(#paint12_linear_400_432)"/>
<path d="M328.56 138.171C319.1 136.951 310.74 133.221 304.52 127.361C296.63 119.911 292.46 109.561 292.47 97.411C292.49 74.911 306.81 58.301 328.28 54.541C310.98 59.651 302.99 78.901 302.97 96.911C302.96 107.311 305.78 117.571 310.71 125.051C315.23 131.911 321.31 136.361 328.56 138.171ZM346.55 137.541C363.21 132.101 370.89 113.261 370.9 95.761C370.9 85.381 368.14 75.111 363.33 67.601C358.98 60.811 353.14 56.331 346.16 54.371C367.28 57.691 381.4 73.751 381.41 95.681C381.41 117.161 367.48 133.361 346.55 137.541ZM319.42 43.601C325.24 37.2143 331.06 30.861 336.88 24.541C342.84 30.8543 348.8 37.151 354.76 43.431L354.62 43.571C349.194 39.8977 343.77 36.2177 338.35 32.531L336.96 31.581L335.58 32.531C330.194 36.2043 324.807 39.8943 319.42 43.601Z" fill="url(#paint13_linear_400_432)"/>
<path d="M474.18 138.683C460.34 134.913 452.07 124.703 452.06 110.613L452.03 56.3626L444.86 56.2826C453.32 53.5926 458.06 48.9626 462.52 41.8926L462.57 112.653C462.58 125.123 466.72 134.183 474.18 138.683Z" fill="url(#paint14_linear_400_432)"/>
<path d="M583.06 144.242C578.033 143.742 573.003 143.259 567.97 142.792V142.712C567.97 140.872 567.79 138.692 567.6 136.372L567.29 132.712C567.16 131.182 567.03 129.642 566.9 128.342L566.34 122.542L562.57 126.992C556.28 134.432 550.09 139.122 543.34 141.412C551.48 137.892 559.21 130.002 566.76 117.552L567.12 116.962L567.09 68.5923C567.09 68.5923 562.72 63.5923 560.84 61.4623C566.413 61.0223 571.99 60.5823 577.57 60.1423V67.3623C577.58 77.2523 577.58 87.4923 577.37 97.3723L577.39 137.172L577.93 137.852C579.643 139.972 581.353 142.102 583.06 144.242ZM525.83 142.532C508.92 139.812 498.59 128.462 498.57 112.172L498.53 66.3723C498.53 66.3723 494.22 61.6823 492.38 59.7023C497.927 59.2156 503.473 58.7323 509.02 58.2523L509.07 114.532C509.09 129.732 514.98 139.472 525.83 142.532ZM588.9 62.1323C590.12 60.7423 590.93 59.0923 591.03 57.2623L591.15 55.0923L589.02 54.7023C586.08 54.1623 583.12 51.9623 583.12 48.2523C583.12 46.5123 583.72 45.0223 584.87 43.9523C585.99 42.9023 587.6 42.3223 589.38 42.3223C595.28 42.4423 595.9 47.4723 595.9 49.6323C595.89 54.0723 593.11 59.1023 588.9 62.1323Z" fill="url(#paint15_linear_400_432)"/>
</g>
</g>
<g style="mix-blend-mode:color-dodge">
<mask id="mask15_400_432" style="mask-type:luminance" maskUnits="userSpaceOnUse" x="181" y="10" width="418" height="138">
<path d="M181.48 147.121H598.36V10.2109H181.48V147.121Z" fill="white"/>
</mask>
<g mask="url(#mask15_400_432)">
<path d="M299.87 10.2109C299.73 10.5509 299.59 10.8909 299.45 11.2309C298.41 13.0609 297.57 14.8909 296.53 16.7309C293.4 23.0509 289.85 30.0109 287.13 36.5909C278.77 58.7509 270.41 81.9909 262.68 104.891C259.34 114.351 256.21 123.441 252.86 133.011C254.113 135.284 255.363 137.551 256.61 139.811C256.61 140.438 256.61 141.061 256.61 141.681C251.05 142.061 245.493 142.468 239.94 142.901C223.52 104.061 207.1 64.2709 190.65 22.9709C190.65 22.9809 185.23 16.5309 182.73 13.6909C182.31 13.1843 181.893 12.6776 181.48 12.1709V10.2109H214.2C214.2 10.7776 214.2 11.3443 214.2 11.9109C211.627 15.1043 209.057 18.3143 206.49 21.5409C220.99 57.4909 235.47 92.3609 249.95 126.541C253.5 116.331 256.85 106.611 260.4 96.7209C267.92 75.4909 275.23 54.9409 282.96 34.3809C280.673 26.7609 278.39 19.1143 276.11 11.4409C284.03 11.0276 291.95 10.6176 299.87 10.2109Z" fill="url(#paint16_linear_400_432)"/>
<path fill-rule="evenodd" clip-rule="evenodd" d="M383.87 95.6805C383.87 121.73 364.66 140.27 337.32 141.04C309.98 141.87 289.98 124.47 290 97.4105C290.03 70.1705 310.06 51.4405 337.37 51.2705C364.68 51.0505 383.87 69.6705 383.87 95.6805ZM368.43 95.7605C368.43 77.5405 359.47 55.5205 337.37 55.7005C315.06 55.8805 305.45 78.0105 305.43 96.9105C305.42 115.65 314.99 137.29 337.32 136.61C359.44 136.03 368.43 113.81 368.43 95.7605ZM337.39 21.4805C344.33 28.8405 351.277 36.1838 358.23 43.5105C357.117 44.5838 356.003 45.6571 354.89 46.7305C348.91 42.6838 342.933 38.6305 336.96 34.5705C330.913 38.6905 324.867 42.8371 318.82 47.0105C317.847 45.9438 316.873 44.8771 315.9 43.8105C322.72 36.3238 329.533 28.8838 336.34 21.4905C336.693 21.4838 337.043 21.4805 337.39 21.4805Z" fill="url(#paint17_linear_400_432)"/>
<path d="M465.04 112.651C465.05 123.991 468.81 137.031 482.79 139.121C482.79 140.275 482.79 141.428 482.79 142.581C463.19 141.201 449.61 129.551 449.6 110.611C449.587 93.3381 449.577 76.0681 449.57 58.8015C446.857 58.7681 444.147 58.7381 441.44 58.7115C441.434 57.3715 441.43 56.0282 441.43 54.6815C452.48 51.9715 457.07 46.5815 462.27 37.5215C463.177 37.5282 464.08 37.5348 464.98 37.5415C464.987 43.2815 464.99 49.0182 464.99 54.7515C470.69 54.8315 476.39 54.9181 482.09 55.0115C482.09 56.4315 482.09 57.8548 482.09 59.2815C476.397 59.1815 470.7 59.0882 465 59.0015C465.014 76.8815 465.027 94.7648 465.04 112.651Z" fill="url(#paint18_linear_400_432)"/>
<path d="M587.14 145.4C587.14 145.974 587.14 146.547 587.14 147.12C579.86 146.38 572.577 145.68 565.29 145.02C565.5 143.98 565.5 143.34 565.5 142.7C565.5 140.79 565.29 138.43 565.08 135.86C564.87 133.51 564.66 130.73 564.45 128.58C555.51 139.16 544.9 146.6 529.69 145.46C510.11 143.98 496.13 131.79 496.11 112.17C496.097 97.2236 496.083 82.2769 496.07 67.3303C493.563 64.6103 491.06 61.9003 488.56 59.2003C488.56 58.6536 488.56 58.1069 488.56 57.5603C496.2 56.8869 503.84 56.2236 511.48 55.5703C511.5 75.2236 511.52 94.8769 511.54 114.53C511.55 127.72 516.35 139.91 531.57 141.02C546.56 142.15 557.58 127.93 564.65 116.27C564.643 100.684 564.637 85.0969 564.63 69.5103C562.13 66.6503 559.627 63.8036 557.12 60.9703C557.12 60.4103 557.12 59.8469 557.12 59.2803C564.76 58.6803 572.397 58.0803 580.03 57.4803C580.03 59.6269 580.033 61.7736 580.04 63.9203C583.78 63.6403 588.36 60.8003 588.57 57.1203C584.2 56.3203 580.66 52.9803 580.66 48.2503C580.65 43.1003 584.61 39.7403 589.61 39.8503C595.24 39.9703 598.36 43.9703 598.36 49.6303C598.36 57.7203 590.45 67.8203 580.04 67.3603C580.04 77.4503 580.04 87.5503 579.84 97.4203C579.847 110.38 579.85 123.34 579.85 136.3C582.283 139.314 584.713 142.347 587.14 145.4Z" fill="url(#paint19_linear_400_432)"/>
</g>
</g>
</g>
<mask id="mask16_400_432" style="mask-type:luminance" maskUnits="userSpaceOnUse" x="12" y="154" width="97" height="142">
<path d="M73.7799 154.32L71.2299 156.15L69.9299 179.89C59.3199 195.94 48.8099 212.2 38.6599 228.3L38.6899 166.91C40.9832 164.27 43.2766 161.644 45.5699 159.03L45.9899 158.56V154.32H12.3999V158.61L12.8199 159.08C15.1799 161.747 17.5399 164.4 19.8999 167.04L19.8899 282.52C17.5166 285.427 15.1432 288.354 12.7699 291.3L12.3999 291.76V295.97L14.2599 295.77C24.2999 294.684 34.3432 293.644 44.3899 292.65L45.9099 292.5V288.6L45.4399 288.11C43.1732 285.744 40.9066 283.367 38.6399 280.98L38.6499 243.17C40.2166 240.664 41.7832 238.16 43.3499 235.66C56.4799 253.04 70.1799 270.69 84.1099 288.16L84.6699 288.87L85.5699 288.79C92.7099 288.164 99.8532 287.557 107 286.97L108.54 286.84L108.55 282.84L106.14 280.97C103.74 279.35 98.8599 275.97 97.8299 275.26C82.7999 256.41 68.0699 237.43 54.0199 218.8C70.4899 193.02 83.9299 173.95 97.5199 157.06L99.7199 154.32H73.7799Z" fill="white"/>
</mask>
<g mask="url(#mask16_400_432)">
<path d="M12.3999 295.97V154.32H108.55V295.97H12.3999Z" fill="url(#paint20_linear_400_432)"/>
</g>
<mask id="mask17_400_432" style="mask-type:luminance" maskUnits="userSpaceOnUse" x="108" y="168" width="34" height="119">
<path d="M132.6 198.499C124.96 199.499 117.317 200.519 109.67 201.559L108.21 201.759V205.539L108.69 206.029C111.023 208.436 113.36 210.833 115.7 213.219L115.61 274.289C113.243 276.949 110.88 279.626 108.52 282.319L108.1 282.789L108.09 286.879L109.91 286.729C119.97 285.909 130.033 285.133 140.1 284.399L141.65 284.279L141.66 280.429C141.66 280.429 136.64 275.409 134.38 273.129L134.51 198.249L132.6 198.499ZM124.93 168.439C119.17 168.489 114.3 173.379 114.29 179.119C114.28 181.749 115.35 184.269 117.3 186.219C119.29 188.209 122 189.349 124.75 189.349H124.95C130.81 189.229 135.77 184.439 135.78 178.879C135.79 176.179 134.71 173.609 132.74 171.639C130.71 169.609 127.9 168.439 124.93 168.439Z" fill="white"/>
</mask>
<g mask="url(#mask17_400_432)">
<path d="M108.09 286.879V168.439H141.66V286.879H108.09Z" fill="url(#paint21_linear_400_432)"/>
</g>
<mask id="mask18_400_432" style="mask-type:luminance" maskUnits="userSpaceOnUse" x="145" y="165" width="95" height="120">
<path d="M195.45 193.939C218.62 193.939 234.66 205.759 239.46 226.359L239.82 227.879L238.32 228.339C212.64 236.249 188.88 243.929 165.73 251.799C167.94 261.579 174.35 276.319 192.95 276.319C193.65 276.319 194.366 276.299 195.1 276.259C205.79 275.629 220.38 270.139 227.18 259.569L227.65 258.839L239.71 258.339L237.92 261.069C229.32 274.249 212.76 282.819 193.63 283.979C192.436 284.059 191.253 284.099 190.08 284.099C177.5 284.099 166.1 279.609 157.95 271.449C149.87 263.359 145.43 252.119 145.45 239.809C145.49 213.249 165.57 194.389 194.28 193.949C194.666 193.943 195.056 193.939 195.45 193.939ZM164.53 244.329C183 238.049 201.8 231.919 221.89 225.599C219.69 215.999 213.33 201.579 195.01 201.579L194.34 201.589C173.7 201.959 164.26 221.289 164.23 239.109C164.23 240.879 164.33 242.649 164.53 244.329ZM194.44 165.199L194.94 165.709C201.63 172.549 208.63 179.639 215.73 186.769L216.96 187.999L211.4 193.209L210.29 192.499C204.63 188.873 198.97 185.216 193.31 181.529C187.563 185.349 181.82 189.203 176.08 193.089L174.9 193.889L169.92 188.609L171 187.459C177.6 180.379 184.49 173.069 191.48 165.729L191.97 165.219L194.44 165.199Z" fill="white"/>
</mask>
<g mask="url(#mask18_400_432)">
<path d="M145.43 284.099V165.199H239.82V284.099H145.43Z" fill="url(#paint22_linear_400_432)"/>
</g>
<mask id="mask19_400_432" style="mask-type:luminance" maskUnits="userSpaceOnUse" x="244" y="194" width="103" height="86">
<path d="M337.79 195.139C330.144 195.926 322.494 196.729 314.84 197.549L313.34 197.709L313.33 201.429L320.84 208.609L320.8 248.299C310.36 263.919 300.02 271.689 289.21 272.039C288.884 272.053 288.56 272.059 288.24 272.059C283.09 272.059 279.03 270.609 276.18 267.759C271.85 263.429 270.95 256.479 270.96 251.419L271.04 195.609L269.17 195.819C261.524 196.673 253.877 197.543 246.23 198.429L244.74 198.599V202.329C244.74 202.329 249.9 207.339 252.23 209.599L252.16 250.389C252.15 258.479 254.82 265.429 259.88 270.499C265.84 276.469 274.7 279.629 285.5 279.629C286.14 279.629 286.79 279.616 287.45 279.589C300.1 279.159 310.56 274.159 320.95 263.469C320.95 263.479 321.26 266.699 321.26 266.699C321.44 268.609 321.61 270.419 321.61 271.859C321.6 272.379 321.6 272.789 321.44 273.539L320.96 275.639L323.12 275.589C330.42 275.423 337.72 275.276 345.02 275.149L346.67 275.119V271.269L339.38 264.169L339.4 231.339C339.62 220.049 339.63 207.769 339.64 196.809V194.949L337.79 195.139Z" fill="white"/>
</mask>
<g mask="url(#mask19_400_432)">
<path d="M244.74 279.629V194.949H346.67V279.629H244.74Z" fill="url(#paint23_linear_400_432)"/>
</g>
<mask id="mask20_400_432" style="mask-type:luminance" maskUnits="userSpaceOnUse" x="399" y="154" width="102" height="122">
<path d="M399.68 157.091V160.781L407.19 167.971V263.531L399.67 270.731V274.611L408.91 274.601C416.41 274.601 423.907 274.624 431.4 274.671L433.09 274.681V270.821L426 263.591L425.99 221.821C433.13 211.321 443.1 199.481 457.24 199.481C473.39 199.551 475.81 212.471 475.82 220.161L475.85 264.121L468.34 271.221L468.35 275.081L470 275.111C479.667 275.271 489.333 275.468 499 275.701L500.72 275.751V271.851L494.45 265.381L494.41 222.001C494.39 203.891 480.62 192.131 459.34 192.051H459.13C446.59 192.051 435.96 196.691 425.98 206.591L425.97 154.131L399.68 157.091Z" fill="white"/>
</mask>
<g mask="url(#mask20_400_432)">
<path d="M399.67 275.751V154.131H500.72V275.751H399.67Z" fill="url(#paint24_linear_400_432)"/>
</g>
<mask id="mask21_400_432" style="mask-type:luminance" maskUnits="userSpaceOnUse" x="505" y="168" width="93" height="113">
<path d="M543.58 192.74L544.43 192.75C566.87 192.96 590.1 206.97 590.14 230.05L590.21 267.64C592.557 270.08 594.91 272.527 597.27 274.98L597.73 275.47L597.74 279.45L595.97 279.36C588.67 278.987 581.373 278.637 574.08 278.31L572.48 278.24L572.47 275.3C572.456 275.113 572.443 274.94 572.43 274.78C566.01 278.43 558.47 280.28 549.99 280.28C549.197 280.28 548.4 280.263 547.6 280.23C527.12 279.4 505.07 268.94 505.05 247.93C505.04 240.79 507.59 234.61 512.61 229.58C519.84 222.35 532.17 218.02 545.59 218.02C545.983 218.02 546.38 218.023 546.78 218.03C555.63 218.21 564.08 220.37 571.4 224.32C570.03 209.37 560.12 200.44 544.4 200.26C542.77 200.26 534.83 204.16 517.83 215.17L516.39 216.18L511.92 216.12L511.65 195.58L515.88 195.16C518.54 194.9 521.56 194.62 524.15 194.23L527.59 193.87C532.82 193.32 538.22 192.74 543.58 192.74ZM550.64 272.81C559.31 272.81 566.73 269.3 571.62 262.91L571.57 236.87C565.68 229.65 557.69 225.58 549.01 225.4H548.32C541.02 225.4 534.51 227.89 529.99 232.42C525.75 236.65 523.43 242.48 523.44 248.82C523.45 262.34 534.13 272.19 549.39 272.79C549.81 272.803 550.227 272.81 550.64 272.81ZM534.33 168.41C539.55 168.43 543.53 170.25 547.37 172.01C550.77 173.65 554.08 175.11 557.74 175.13C559.97 175.13 562.6 173.93 562.71 172.38L562.83 170.82L567.26 170.84L567.74 171.7C568.9 173.81 569.41 175.58 569.42 177.45C569.42 180.39 568.26 183.24 566.24 185.26C564.23 187.28 561.55 188.34 558.49 188.34H558.35C553.21 188.28 548.93 186.41 545.33 184.65C542.02 183.14 538.74 181.76 535.2 181.73C533.82 181.73 531.96 182.22 531.03 183.16C530.63 183.56 530.44 183.99 530.44 184.5L530.45 186.2L526.19 186.17L525.69 185.42C524.36 183.42 523.74 181.46 523.74 179.24C523.73 176.25 524.88 173.39 526.9 171.37C528.83 169.43 531.4 168.41 534.33 168.41Z" fill="white"/>
</mask>
<g mask="url(#mask21_400_432)">
<path d="M505.04 280.28V168.41H597.74V280.28H505.04Z" fill="url(#paint25_linear_400_432)"/>
</g>
<mask id="mask22_400_432" style="mask-type:luminance" maskUnits="userSpaceOnUse" x="600" y="194" width="102" height="93">
<path d="M626.38 209.439L626.36 196.949L600.07 199.089L600.08 202.869C600.08 202.869 605.25 208.139 607.6 210.549L607.7 268.589C605.38 270.809 600.21 275.719 600.21 275.719V279.579L601.8 279.659C611.88 280.193 621.953 280.763 632.02 281.369L633.81 281.479L633.8 277.479L633.37 276.999C631.076 274.479 628.783 271.969 626.49 269.469L626.41 225.329C633.5 214.539 643.36 202.359 657.07 202.359L657.58 202.369C673.74 202.729 676.18 216.819 676.19 225.189L676.27 272.659C673.95 274.919 668.78 279.919 668.78 279.919L668.79 283.789L670.35 283.899C679.996 284.586 689.643 285.313 699.29 286.079L701.11 286.189L701.1 282.159L700.7 281.689C698.746 279.389 696.793 277.099 694.84 274.819L694.77 227.619C694.74 208.029 680.98 195.109 659.73 194.699C659.396 194.693 659.063 194.689 658.73 194.689C643.51 194.689 633.23 202.369 626.38 209.439Z" fill="white"/>
</mask>
<g mask="url(#mask22_400_432)">
<path d="M600.07 286.189V194.689H701.11V286.189H600.07Z" fill="url(#paint26_linear_400_432)"/>
</g>
<mask id="mask23_400_432" style="mask-type:luminance" maskUnits="userSpaceOnUse" x="704" y="154" width="101" height="142">
<path d="M728.41 154.34C720.77 155.3 713.13 156.246 705.49 157.18L704.01 157.36V161.15L704.47 161.63C706.823 164.123 709.176 166.626 711.53 169.14L711.68 275.23C709.353 277.523 707.026 279.81 704.7 282.09L704.19 282.59L704.2 286.47L705.74 286.59C715.733 287.396 725.723 288.246 735.71 289.14L737.54 289.3L737.53 285.21L737.16 284.75C734.92 281.996 732.683 279.26 730.45 276.54L730.39 229.54C737.47 218.2 747.3 205.39 760.86 205.39C761.086 205.39 761.31 205.393 761.53 205.4C777.69 205.92 780.11 221.13 780.12 230.15L780.14 281.1C777.806 283.48 775.473 285.85 773.14 288.21L772.66 288.7V292.62L774.17 292.77C783.803 293.73 793.433 294.73 803.06 295.77L804.92 295.97V291.78L804.57 291.32C802.61 288.786 800.646 286.263 798.68 283.75L798.67 232.95C798.67 211.98 784.95 198.04 763.72 197.46C763.266 197.446 762.816 197.44 762.37 197.44C747.37 197.44 737.18 205.44 730.37 212.82L730.29 154.1L728.41 154.34Z" fill="white"/>
</mask>
<g mask="url(#mask23_400_432)">
<path d="M704.01 295.97V154.1H804.92V295.97H704.01Z" fill="url(#paint27_linear_400_432)"/>
</g>
<mask id="mask24_400_432" style="mask-type:luminance" maskUnits="userSpaceOnUse" x="14" y="156" width="93" height="139">
<path d="M74.3201 156.011C73.8334 156.358 73.3467 156.704 72.8601 157.051C72.4334 164.838 72.0101 172.631 71.5901 180.431C60.0401 197.891 48.5001 215.761 36.9801 234.131C36.9867 211.511 36.9967 188.894 37.0101 166.281C39.4434 163.481 41.8767 160.694 44.3101 157.921C44.3101 157.281 44.3101 156.644 44.3101 156.011C34.2301 156.004 24.1534 156.004 14.0801 156.011V157.971C16.5867 160.798 19.0901 163.608 21.5901 166.401C21.5834 205.308 21.5767 244.214 21.5701 283.121C19.0701 286.181 16.5734 289.258 14.0801 292.351V294.091C24.1267 293.011 34.1767 291.971 44.2301 290.971C44.2301 290.404 44.2301 289.838 44.2301 289.271C41.8034 286.744 39.3767 284.204 36.9501 281.651C36.9567 268.664 36.9634 255.678 36.9701 242.691C39.0567 239.344 41.1401 236.014 43.2201 232.701C57.3001 251.371 71.3601 269.471 85.4201 287.111C92.5667 286.484 99.7134 285.878 106.86 285.291C106.86 284.751 106.86 284.208 106.86 283.661C106.307 283.228 105.753 282.798 105.2 282.371C102.5 280.551 96.6701 276.501 96.6701 276.501C81.7801 257.831 66.8801 238.661 51.9701 218.881C66.1501 196.651 80.3401 175.731 96.2101 156.011C92.5634 156.011 88.9167 156.011 85.2701 156.011C81.6167 156.011 77.9667 156.011 74.3201 156.011Z" fill="white"/>
</mask>
<g mask="url(#mask24_400_432)">
<path d="M14.0801 294.092V156.012H106.86V294.092H14.0801Z" fill="url(#paint28_linear_400_432)"/>
</g>
<mask id="mask25_400_432" style="mask-type:luminance" maskUnits="userSpaceOnUse" x="109" y="170" width="31" height="116">
<path d="M109.9 203.229C109.9 203.769 109.896 204.312 109.89 204.859C112.39 207.426 114.886 209.982 117.38 212.529C117.353 233.329 117.323 254.129 117.29 274.929C114.783 277.742 112.28 280.572 109.78 283.419C109.78 283.966 109.78 284.509 109.78 285.049C119.84 284.229 129.906 283.452 139.98 282.719C139.98 282.186 139.98 281.652 139.98 281.119C137.553 278.699 135.126 276.269 132.7 273.829C132.74 249.276 132.78 224.722 132.82 200.169C125.18 201.162 117.54 202.182 109.9 203.229ZM124.95 170.119C120.16 170.159 115.98 174.249 115.98 179.119C115.97 183.789 120.13 187.769 124.92 187.669C129.92 187.569 134.1 183.479 134.11 178.869C134.11 174.089 129.99 170.119 125.02 170.119C125 170.119 124.976 170.119 124.95 170.119Z" fill="white"/>
</mask>
<g mask="url(#mask25_400_432)">
<path d="M109.78 285.049V170.119H139.98V285.049H109.78Z" fill="url(#paint29_linear_400_432)"/>
</g>
<mask id="mask26_400_432" style="mask-type:luminance" maskUnits="userSpaceOnUse" x="147" y="166" width="91" height="117">
<path d="M195.44 195.621C217.36 195.621 233.14 206.661 237.82 226.741C213.14 234.341 188.45 242.281 163.78 250.691C166.88 266.541 176.65 279.041 195.2 277.941C207.5 277.211 221.9 270.881 228.59 260.481C231.23 260.367 233.873 260.257 236.52 260.151C227.32 274.241 209.79 281.311 193.53 282.311C166.42 284.051 147.09 265.221 147.13 239.811C147.18 213.231 167.21 196.051 194.31 195.631C194.69 195.624 195.067 195.621 195.44 195.621ZM163.16 246.571C183.39 239.681 203.62 233.091 223.86 226.751C220.96 212.101 212.23 199.571 194.3 199.911C172.21 200.301 162.58 220.711 162.55 239.101C162.55 241.671 162.75 244.231 163.16 246.571ZM193.74 166.891C200.673 173.977 207.607 181.001 214.54 187.961C213.427 189.001 212.313 190.044 211.2 191.091C205.233 187.264 199.267 183.407 193.3 179.521C187.247 183.541 181.193 187.601 175.14 191.701C174.167 190.667 173.197 189.637 172.23 188.611C179.05 181.297 185.87 174.057 192.69 166.891C193.043 166.891 193.393 166.891 193.74 166.891Z" fill="white"/>
</mask>
<g mask="url(#mask26_400_432)">
<path d="M147.09 284.051V166.891H237.82V284.051H147.09Z" fill="url(#paint30_linear_400_432)"/>
</g>
<mask id="mask27_400_432" style="mask-type:luminance" maskUnits="userSpaceOnUse" x="246" y="196" width="99" height="82">
<path d="M315.02 199.221C315.02 199.721 315.02 200.217 315.02 200.711C317.52 203.111 320.02 205.507 322.52 207.901C322.507 221.541 322.493 235.177 322.48 248.811C315.37 259.541 304.3 273.231 289.27 273.721C274.04 274.231 269.26 263.501 269.28 251.421C269.307 233.441 269.333 215.464 269.36 197.491C261.713 198.344 254.067 199.214 246.42 200.101C246.42 200.607 246.42 201.114 246.42 201.621C248.913 204.047 251.41 206.471 253.91 208.891C253.89 222.724 253.87 236.557 253.85 250.391C253.81 268.631 267.77 278.601 287.39 277.911C302.62 277.391 313.27 269.651 322.26 259.611C322.46 261.461 322.67 263.871 322.88 265.921C323.08 268.141 323.29 270.191 323.29 271.861C323.29 272.421 323.29 272.971 323.08 273.911C330.38 273.737 337.683 273.587 344.99 273.461C344.99 272.967 344.99 272.474 344.99 271.981C342.557 269.614 340.123 267.247 337.69 264.881C337.7 253.571 337.71 242.621 337.72 231.311C337.94 219.991 337.95 207.941 337.96 196.811C330.313 197.604 322.667 198.407 315.02 199.221Z" fill="white"/>
</mask>
<g mask="url(#mask27_400_432)">
<path d="M246.42 278.601V196.811H344.99V278.601H246.42Z" fill="url(#paint31_linear_400_432)"/>
</g>
<mask id="mask28_400_432" style="mask-type:luminance" maskUnits="userSpaceOnUse" x="401" y="156" width="99" height="119">
<path d="M401.36 158.59C401.36 159.083 401.36 159.573 401.36 160.06C403.867 162.46 406.37 164.86 408.87 167.26C408.87 199.586 408.87 231.916 408.87 264.25C406.363 266.643 403.857 269.043 401.35 271.45C401.35 271.936 401.35 272.426 401.35 272.92C411.37 272.9 421.39 272.92 431.41 272.98C431.41 272.493 431.41 272.003 431.41 271.51C429.043 269.096 426.677 266.686 424.31 264.28C424.31 249.953 424.307 235.626 424.3 221.3C431.4 210.81 442.03 197.73 457.25 197.8C472.26 197.86 477.49 208.29 477.5 220.16C477.513 235.053 477.523 249.946 477.53 264.84C475.03 267.213 472.53 269.58 470.03 271.94C470.03 272.433 470.03 272.93 470.03 273.43C479.697 273.59 489.367 273.786 499.04 274.02C499.04 273.526 499.04 273.03 499.04 272.53C496.947 270.37 494.857 268.216 492.77 266.07C492.757 251.376 492.743 236.686 492.73 222C492.71 204.14 478.73 193.81 459.33 193.74C443.9 193.67 433.27 200.85 424.3 210.79C424.3 192.53 424.297 174.27 424.29 156.01C416.65 156.87 409.007 157.73 401.36 158.59Z" fill="white"/>
</mask>
<g mask="url(#mask28_400_432)">
<path d="M401.35 274.02V156.01H499.04V274.02H401.35Z" fill="url(#paint32_linear_400_432)"/>
</g>
<mask id="mask29_400_432" style="mask-type:luminance" maskUnits="userSpaceOnUse" x="506" y="170" width="91" height="109">
<path d="M543.57 194.42C543.85 194.42 544.13 194.423 544.41 194.43C566.09 194.63 588.42 208.36 588.46 230.05C588.48 242.803 588.503 255.56 588.53 268.32C591.037 270.913 593.543 273.523 596.05 276.15C596.05 276.657 596.05 277.167 596.05 277.68C588.75 277.307 581.45 276.957 574.15 276.63C574.15 276.183 574.15 275.74 574.15 275.3C573.94 272.24 573.94 272.06 573.94 271.87C566.23 277.05 557.26 278.92 547.67 278.55C528.05 277.76 506.76 267.66 506.73 247.93C506.71 228.38 527.35 219.34 546.74 219.71C556.13 219.9 565.31 222.37 573.24 227.33C573 211.14 563.6 198.8 544.42 198.57C540.67 198.54 522.54 210.12 516.91 213.76C516.563 214.007 516.217 214.25 515.87 214.49C515.103 214.483 514.34 214.473 513.58 214.46C513.5 208.673 513.423 202.883 513.35 197.09C516.68 196.75 520.85 196.42 524.4 195.9C530.79 195.25 537.18 194.42 543.57 194.42ZM550.64 274.49C560.09 274.49 568.13 270.54 573.3 263.47C573.28 254.403 573.263 245.337 573.25 236.27C567.4 228.87 559.05 223.93 549.04 223.72C532.57 223.38 521.74 234.62 521.76 248.83C521.77 263.22 533.06 273.84 549.33 274.47C549.77 274.483 550.207 274.49 550.64 274.49ZM534.33 170.09C534.343 170.09 534.357 170.09 534.37 170.09C539.16 170.11 542.92 171.82 546.67 173.54C550.22 175.25 553.77 176.79 557.73 176.82C560.44 176.84 564.19 175.35 564.39 172.5C565.017 172.507 565.643 172.51 566.27 172.51C567.31 174.42 567.73 175.94 567.73 177.46C567.74 182.01 564.41 186.72 558.37 186.66C553.57 186.61 549.61 184.87 546.06 183.14C542.73 181.61 539.18 180.08 535.22 180.05C532.72 180.03 528.76 181.32 528.76 184.51C528.207 184.503 527.65 184.497 527.09 184.49C525.84 182.61 525.42 180.92 525.42 179.23C525.41 174.75 528.52 170.09 534.33 170.09Z" fill="white"/>
</mask>
<g mask="url(#mask29_400_432)">
<path d="M506.71 278.92V170.09H596.05V278.92H506.71Z" fill="url(#paint33_linear_400_432)"/>
</g>
<mask id="mask30_400_432" style="mask-type:luminance" maskUnits="userSpaceOnUse" x="601" y="196" width="99" height="89">
<path d="M624.71 213.739C624.696 208.752 624.686 203.766 624.68 198.779C617.04 199.399 609.4 200.019 601.76 200.639C601.76 201.152 601.76 201.666 601.76 202.179C604.266 204.732 606.773 207.292 609.28 209.859C609.313 229.679 609.346 249.496 609.38 269.309C606.886 271.696 604.39 274.072 601.89 276.439C601.89 276.952 601.89 277.466 601.89 277.979C611.97 278.512 622.046 279.082 632.12 279.689C632.12 279.169 632.12 278.649 632.12 278.129C629.686 275.449 627.25 272.779 624.81 270.119C624.783 255.026 624.756 239.929 624.73 224.829C631.8 213.999 642.4 200.349 657.62 200.689C672.62 201.029 677.85 212.369 677.87 225.189C677.896 241.249 677.923 257.309 677.95 273.369C675.456 275.796 672.963 278.216 670.47 280.629C670.47 281.162 670.47 281.692 670.47 282.219C680.123 282.912 689.773 283.639 699.42 284.399C699.42 283.859 699.42 283.319 699.42 282.779C697.333 280.319 695.246 277.872 693.16 275.439C693.133 259.499 693.106 243.559 693.08 227.619C693.05 208.199 679.08 196.749 659.69 196.379C659.37 196.372 659.05 196.369 658.73 196.369C643.82 196.369 633.46 203.719 624.71 213.739Z" fill="white"/>
</mask>
<g mask="url(#mask30_400_432)">
<path d="M601.76 284.399V196.369H699.42V284.399H601.76Z" fill="url(#paint34_linear_400_432)"/>
</g>
<mask id="mask31_400_432" style="mask-type:luminance" maskUnits="userSpaceOnUse" x="705" y="156" width="99" height="139">
<path d="M705.69 158.85C705.69 159.396 705.693 159.94 705.7 160.48C708.2 163.133 710.703 165.796 713.21 168.47C713.257 204.29 713.307 240.11 713.36 275.93C710.867 278.39 708.373 280.843 705.88 283.29C705.88 283.83 705.88 284.373 705.88 284.92C715.873 285.726 725.863 286.576 735.85 287.47C735.85 286.916 735.85 286.363 735.85 285.81C733.49 282.903 731.13 280.013 728.77 277.14C728.75 261.113 728.73 245.086 728.71 229.06C735.77 217.68 746.38 203.25 761.59 203.72C776.58 204.2 781.79 216.4 781.8 230.14C781.807 247.36 781.813 264.573 781.82 281.78C779.327 284.333 776.833 286.87 774.34 289.39C774.34 289.963 774.34 290.533 774.34 291.1C783.973 292.06 793.607 293.056 803.24 294.09V292.35C801.16 289.663 799.08 286.986 797 284.32C796.993 267.2 796.99 250.076 796.99 232.95C796.99 212.07 783.04 199.67 763.67 199.14C748.25 198.67 737.63 206.53 728.69 217.3C728.663 196.866 728.637 176.436 728.61 156.01C720.97 156.97 713.33 157.916 705.69 158.85Z" fill="white"/>
</mask>
<g mask="url(#mask31_400_432)">
<path d="M705.69 294.09V156.01H803.24V294.09H705.69Z" fill="url(#paint35_linear_400_432)"/>
</g>
<g style="mix-blend-mode:color-dodge" opacity="0.42">
<mask id="mask32_400_432" style="mask-type:luminance" maskUnits="userSpaceOnUse" x="17" y="158" width="783" height="134">
<path d="M17.8198 291.181H799.22V158.471H17.8198V291.181Z" fill="white"/>
</mask>
<g mask="url(#mask32_400_432)">
<path d="M18.1998 291.181C19.9598 289.001 21.7198 286.834 23.4798 284.681L24.0298 284.001L24.0498 165.481L23.4198 164.761C21.5532 162.674 19.6865 160.577 17.8198 158.471H40.5498C38.7498 160.531 34.5398 165.361 34.5398 165.361L34.4898 282.631C34.4898 282.631 38.6798 287.041 40.4398 288.881C33.0265 289.621 25.6132 290.387 18.1998 291.181ZM86.5198 284.541C72.3898 266.781 58.4798 248.851 45.1898 231.221L43.2998 228.711C45.2665 225.597 47.2465 222.477 49.2398 219.351L50.0098 220.361C64.3398 239.381 79.3898 258.781 94.7498 278.031L94.7098 277.931C95.4598 278.751 97.3398 280.051 102.05 283.221C96.8698 283.647 91.6932 284.087 86.5198 284.541ZM74.0098 181.241L75.2498 158.471H91.0998C84.8198 166.441 78.5298 174.941 71.9098 184.411C72.4898 183.541 74.0098 181.241 74.0098 181.241Z" fill="url(#paint36_linear_400_432)"/>
<path d="M119.75 275.87L119.85 211.52C119.85 211.52 115.5 207.08 113.67 205.2C119.23 204.447 124.79 203.707 130.35 202.98L130.23 274.84C130.23 274.84 134.26 278.89 135.92 280.55C128.653 281.09 121.387 281.65 114.12 282.23C115.79 280.33 119.75 275.87 119.75 275.87ZM124.75 185.21C123.1 185.21 121.46 184.51 120.24 183.29C119.08 182.13 118.44 180.65 118.44 179.13C118.45 175.67 121.5 172.61 124.97 172.59C126.81 172.59 128.56 173.31 129.82 174.57C131 175.75 131.65 177.28 131.64 178.87C131.64 182.17 128.47 185.13 124.87 185.2L124.75 185.21Z" fill="url(#paint37_linear_400_432)"/>
<path d="M185.98 279.78C176.16 278.93 167.36 275.01 160.89 268.53C153.59 261.21 149.58 251.02 149.6 239.81C149.63 218.55 163.14 203.12 184.13 199.12C167.72 204.58 160.11 222.44 160.09 239.1C160.08 241.82 160.3 244.55 160.73 247L161.08 249L160.95 249.05L161.36 251.16C164.46 267.03 173.28 277.13 185.98 279.78ZM222.15 270.78C225.14 268.54 227.8 265.92 229.94 262.89L231.41 262.83C228.72 265.95 225.56 268.58 222.15 270.78ZM226.27 226.27C223.42 211.84 215.75 202.25 204.68 198.83C219.98 201.41 230.69 210.64 234.85 225.08C232.056 225.94 229.286 226.797 226.54 227.65L226.27 226.27ZM176.1 188.07C181.67 182.11 187.42 176.02 193.24 169.9C198.99 175.77 204.95 181.81 211 187.9L210.92 187.98C205.493 184.494 200.066 180.984 194.64 177.45L193.28 176.57L191.93 177.47C186.656 180.97 181.38 184.504 176.1 188.07Z" fill="url(#paint38_linear_400_432)"/>
<path d="M281.18 275.291C273.48 274.581 267.19 271.951 262.81 267.571C258.49 263.231 256.3 257.461 256.31 250.401L256.38 207.841C256.38 207.841 252.18 203.781 250.46 202.111C255.94 201.484 261.417 200.864 266.89 200.251L266.81 251.411C266.8 259.801 269.02 266.461 273.25 270.691C275.417 272.864 278.06 274.397 281.18 275.291ZM325.75 271.381C325.72 269.861 325.56 268.131 325.39 266.321L325.08 263.111C324.96 261.781 324.83 260.461 324.71 259.331L324.09 253.851L320.42 257.961C316.29 262.581 312.21 266.211 308 268.941C316.26 262.661 321.98 254.021 324.53 250.171L324.94 249.561L324.98 206.841L319.15 201.261C324.597 200.681 330.043 200.111 335.49 199.551C335.48 210.141 335.46 220.901 335.26 231.261L335.23 265.921L340.53 271.081C335.603 271.174 330.677 271.274 325.75 271.381Z" fill="url(#paint39_linear_400_432)"/>
<path d="M494.56 271.45C487.893 271.296 481.23 271.16 474.57 271.04L480 265.91L479.96 220.16C479.95 207.92 474.93 199.72 465.9 196.67C481.13 198.8 490.25 208.11 490.26 222.01L490.31 267.07L494.56 271.45ZM426.96 270.49C420.946 270.456 414.93 270.443 408.91 270.45H405.96L411.33 265.3V166.2L405.49 160.6L421.83 158.76L421.84 217.19L426.13 212.43C430.35 207.76 434.57 204.17 438.98 201.56C431.89 206.6 426.37 213.84 422.26 219.92L421.84 220.54L421.85 265.28L426.96 270.49Z" fill="url(#paint40_linear_400_432)"/>
<path d="M538.71 275.061C523.24 272.131 509.22 263.241 509.2 247.931C509.19 241.921 511.33 236.741 515.54 232.521C520.84 227.221 529.31 223.661 538.98 222.551C534.38 223.891 530.3 226.241 527.05 229.491C522.04 234.511 519.28 241.381 519.29 248.831C519.31 261.291 526.91 271.091 538.71 275.061ZM591.52 274.991C586.533 274.737 581.543 274.497 576.55 274.271C576.41 272.181 576.4 272.021 576.4 271.871V267.241L572.56 269.821C570.293 271.347 567.85 272.597 565.23 273.571C569.16 271.541 572.58 268.631 575.29 264.921L575.76 264.271L575.72 235.411L575.19 234.741C572.39 231.211 569.15 228.311 565.58 226.121C567.8 227.061 569.916 228.161 571.93 229.421L575.77 231.821L575.7 227.301C575.51 214.051 569.64 204.241 559.68 199.421C574.02 204.101 585.97 215.001 586 230.051L586.07 269.311C586.07 269.311 589.94 273.331 591.52 274.991ZM515.84 199.331L516.27 199.281C518.98 199.031 522.06 198.731 524.76 198.331L528.03 197.991C532.34 197.541 536.77 197.071 541.13 196.931C537.7 198.281 530.76 201.881 516 211.411L515.84 199.331ZM558.39 184.201C554.11 184.161 550.48 182.561 547.14 180.931C543.33 179.181 539.59 177.621 535.23 177.591C533.12 177.591 530.04 178.291 528.09 180.241C528.05 180.281 528.01 180.321 527.97 180.361C527.91 179.994 527.88 179.621 527.88 179.241C527.88 177.381 528.61 175.531 529.83 174.311C530.99 173.151 532.49 172.567 534.33 172.561C538.63 172.581 542.04 174.141 545.65 175.791C549.25 177.531 553.19 179.251 557.71 179.291C560.5 179.291 563.39 178.251 565.16 176.391C565.233 176.757 565.27 177.117 565.27 177.471C565.27 179.311 564.56 181.091 563.3 182.341C562.09 183.561 560.43 184.201 558.49 184.201H558.39Z" fill="url(#paint41_linear_400_432)"/>
<path d="M695.17 281.59C688.316 281.063 681.463 280.55 674.61 280.05C676.3 278.42 680.42 274.41 680.42 274.41L680.34 225.18C680.31 211.18 674.57 202.02 664.35 199.17C680.66 201.13 690.59 211.72 690.62 227.63L690.7 276.35C690.7 276.35 693.88 280.07 695.17 281.59ZM627.72 276.96C620.553 276.533 613.383 276.127 606.21 275.74C607.83 274.2 611.85 270.37 611.85 270.37L611.74 208.85C611.74 208.85 607.55 204.57 605.8 202.79L622.22 201.45L622.26 220.3L626.57 215.37C631.38 209.86 636.17 205.82 641.22 203.11C633.5 208.1 627.46 216.13 622.66 223.48L622.26 224.1L622.35 271.08C622.35 271.08 626.14 275.23 627.72 276.96Z" fill="url(#paint42_linear_400_432)"/>
<path d="M799.21 291.181C792.203 290.441 785.193 289.717 778.18 289.011C779.98 287.181 784.29 282.791 784.29 282.791L784.26 230.151C784.26 214.131 777.66 204.011 766 201.731C783.67 203.171 794.53 214.951 794.53 232.951V285.171C794.53 285.171 797.83 289.401 799.21 291.181ZM731.71 284.621C724.45 283.987 717.187 283.371 709.92 282.771C711.65 281.081 715.83 276.961 715.83 276.961L715.67 167.501C715.67 167.501 711.31 162.841 709.46 160.871C715.027 160.191 720.59 159.501 726.15 158.801L726.24 224.111L730.59 218.871C736.36 211.921 742.09 207.221 748.24 204.491C739.03 209.391 732.03 219.031 726.61 227.761L726.24 228.361L726.3 278.031C726.3 278.031 730.09 282.651 731.71 284.621Z" fill="url(#paint43_linear_400_432)"/>
</g>
</g>
<g style="mix-blend-mode:color-dodge">
<mask id="mask33_400_432" style="mask-type:luminance" maskUnits="userSpaceOnUse" x="14" y="156" width="790" height="139">
<path d="M14.0801 294.09H803.24V156.01H14.0801V294.09Z" fill="white"/>
</mask>
<g mask="url(#mask33_400_432)">
<path d="M96.6701 276.5C96.6701 276.5 102.49 280.55 105.2 282.37C105.753 282.796 106.307 283.226 106.86 283.66C106.86 284.206 106.86 284.75 106.86 285.29C99.7134 285.876 92.5667 286.483 85.4201 287.11C71.3601 269.47 57.3001 251.37 43.2201 232.7C41.1401 236.013 39.0567 239.343 36.9701 242.69C36.9634 255.676 36.9567 268.663 36.9501 281.65C39.3767 284.203 41.8034 286.743 44.2301 289.27C44.2301 289.836 44.2301 290.403 44.2301 290.97C34.1767 291.97 24.1267 293.01 14.0801 294.09V292.35C16.5734 289.256 19.0701 286.18 21.5701 283.12C21.5767 244.213 21.5834 205.306 21.5901 166.4C19.0834 163.606 16.5801 160.796 14.0801 157.97V156.01C24.1601 156.01 34.2367 156.01 44.3101 156.01C44.3101 156.65 44.3101 157.286 44.3101 157.92C41.8767 160.693 39.4434 163.48 37.0101 166.28C36.9967 188.9 36.9867 211.516 36.9801 234.13C48.5067 215.776 60.0434 197.876 71.5901 180.43C72.0101 172.63 72.4334 164.836 72.8601 157.05C73.3467 156.703 73.8334 156.356 74.3201 156.01C81.6134 156.01 88.9101 156.01 96.2101 156.01C80.3401 175.72 66.1501 196.65 51.9701 218.88C66.8801 238.66 81.7801 257.83 96.6701 276.5Z" fill="url(#paint44_linear_400_432)"/>
<path d="M132.7 273.829C135.127 276.269 137.554 278.699 139.98 281.119C139.98 281.653 139.98 282.186 139.98 282.719C129.907 283.453 119.84 284.229 109.78 285.049C109.78 284.509 109.78 283.966 109.78 283.419C112.28 280.573 114.784 277.743 117.29 274.929C117.324 254.129 117.354 233.329 117.38 212.529C114.887 209.983 112.39 207.426 109.89 204.859C109.897 204.313 109.9 203.769 109.9 203.229C117.54 202.189 125.18 201.169 132.82 200.169C132.78 224.723 132.74 249.276 132.7 273.829ZM115.98 179.119C115.98 174.249 120.16 170.159 124.95 170.119C129.95 170.079 134.12 174.069 134.11 178.869C134.1 183.479 129.93 187.569 124.92 187.669C120.13 187.769 115.97 183.789 115.98 179.119Z" fill="url(#paint45_linear_400_432)"/>
<path fill-rule="evenodd" clip-rule="evenodd" d="M228.59 260.481C231.23 260.367 233.873 260.257 236.52 260.151C227.32 274.241 209.79 281.311 193.53 282.311C166.43 284.041 147.09 265.221 147.13 239.811C147.18 213.231 167.21 196.041 194.31 195.631C216.82 195.251 233.06 206.311 237.82 226.741C213.14 234.341 188.45 242.281 163.78 250.691C166.88 266.541 176.65 279.041 195.2 277.941C207.5 277.211 221.9 270.881 228.59 260.481ZM162.55 239.101C162.55 241.671 162.75 244.231 163.16 246.571C183.39 239.681 203.62 233.091 223.86 226.751C220.96 212.101 212.23 199.571 194.3 199.911C172.21 200.301 162.58 220.701 162.55 239.101ZM193.74 166.891C200.673 173.977 207.607 181.001 214.54 187.961C213.427 189.001 212.313 190.044 211.2 191.091C205.233 187.264 199.267 183.407 193.3 179.521C187.247 183.541 181.193 187.601 175.14 191.701C174.173 190.667 173.203 189.637 172.23 188.611C179.05 181.297 185.87 174.057 192.69 166.891C193.037 166.891 193.387 166.891 193.74 166.891Z" fill="url(#paint46_linear_400_432)"/>
<path d="M344.99 271.981C344.99 272.474 344.99 272.967 344.99 273.461C337.683 273.587 330.38 273.737 323.08 273.911C323.29 272.971 323.29 272.411 323.29 271.861C323.29 270.181 323.08 268.141 322.88 265.921C322.67 263.871 322.46 261.461 322.26 259.611C313.27 269.651 302.62 277.391 287.39 277.911C267.77 278.601 253.81 268.631 253.84 250.391C253.867 236.557 253.89 222.724 253.91 208.891C251.417 206.471 248.92 204.047 246.42 201.621C246.42 201.114 246.42 200.607 246.42 200.101C254.067 199.214 261.713 198.344 269.36 197.491C269.333 215.464 269.307 233.441 269.28 251.421C269.26 263.501 274.04 274.231 289.27 273.721C304.3 273.231 315.37 259.541 322.48 248.811C322.493 235.177 322.507 221.541 322.52 207.901C320.02 205.507 317.52 203.111 315.02 200.711C315.02 200.217 315.02 199.721 315.02 199.221C322.667 198.407 330.313 197.604 337.96 196.811C337.95 207.941 337.94 219.991 337.72 231.311C337.71 242.621 337.7 253.571 337.69 264.881C340.123 267.247 342.557 269.614 344.99 271.981Z" fill="url(#paint47_linear_400_432)"/>
<path d="M492.77 266.07C494.857 268.216 496.947 270.37 499.04 272.53C499.04 273.03 499.04 273.526 499.04 274.02C489.367 273.786 479.697 273.59 470.03 273.43C470.03 272.936 470.03 272.44 470.03 271.94C472.53 269.58 475.03 267.213 477.53 264.84C477.523 249.946 477.513 235.053 477.5 220.16C477.49 208.29 472.26 197.86 457.25 197.8C442.03 197.73 431.4 210.81 424.31 221.3C424.31 235.626 424.31 249.953 424.31 264.28C426.677 266.686 429.043 269.096 431.41 271.51C431.41 272.003 431.41 272.496 431.41 272.99C421.39 272.923 411.37 272.9 401.35 272.92C401.35 272.433 401.35 271.943 401.35 271.45C403.857 269.043 406.363 266.643 408.87 264.25C408.87 231.916 408.87 199.586 408.87 167.26C406.37 164.86 403.867 162.46 401.36 160.06C401.36 159.573 401.36 159.083 401.36 158.59C409.007 157.73 416.65 156.87 424.29 156.01C424.297 174.27 424.3 192.53 424.3 210.79C433.27 200.85 443.9 193.67 459.33 193.74C478.73 193.81 492.71 204.14 492.73 222.01C492.743 236.696 492.757 251.383 492.77 266.07Z" fill="url(#paint48_linear_400_432)"/>
<path fill-rule="evenodd" clip-rule="evenodd" d="M588.53 268.32C591.037 270.92 593.543 273.53 596.05 276.15C596.05 276.657 596.05 277.167 596.05 277.68C588.75 277.307 581.45 276.957 574.15 276.63C574.15 276.19 574.15 275.747 574.15 275.3C573.94 272.25 573.94 272.06 573.94 271.87C566.23 277.05 557.26 278.92 547.67 278.55C528.05 277.76 506.76 267.66 506.73 247.93C506.71 228.38 527.35 219.34 546.74 219.71C556.13 219.9 565.31 222.37 573.24 227.33C573 211.14 563.6 198.8 544.42 198.58C540.67 198.54 522.54 210.12 516.91 213.76C516.563 214.007 516.217 214.25 515.87 214.49C515.103 214.483 514.34 214.473 513.58 214.46C513.5 208.673 513.423 202.883 513.35 197.09C516.68 196.75 520.85 196.42 524.4 195.9C531.07 195.22 537.74 194.35 544.41 194.43C566.1 194.63 588.42 208.36 588.46 230.05C588.487 242.803 588.51 255.56 588.53 268.32ZM573.3 263.47C573.28 254.403 573.263 245.337 573.25 236.27C567.4 228.87 559.05 223.93 549.04 223.72C532.57 223.38 521.74 234.62 521.76 248.83C521.77 263.22 533.06 273.84 549.33 274.47C559.34 274.85 567.89 270.86 573.3 263.47ZM566.27 172.51C567.31 174.42 567.73 175.94 567.74 177.46C567.74 182.02 564.41 186.73 558.37 186.66C553.57 186.61 549.61 184.87 546.06 183.14C542.73 181.61 539.18 180.08 535.22 180.05C532.72 180.03 528.76 181.32 528.76 184.51C528.207 184.503 527.65 184.497 527.09 184.49C525.84 182.61 525.42 180.92 525.42 179.24C525.41 174.74 528.53 170.07 534.37 170.09C539.16 170.11 542.92 171.82 546.67 173.54C550.22 175.25 553.77 176.79 557.73 176.82C560.44 176.84 564.19 175.35 564.39 172.5C565.017 172.507 565.643 172.51 566.27 172.51Z" fill="url(#paint49_linear_400_432)"/>
<path d="M693.16 275.439C695.247 277.872 697.334 280.319 699.42 282.779C699.42 283.319 699.42 283.859 699.42 284.399C689.774 283.639 680.124 282.912 670.47 282.219C670.47 281.692 670.47 281.162 670.47 280.629C672.964 278.216 675.457 275.796 677.95 273.369C677.924 257.309 677.897 241.249 677.87 225.189C677.85 212.369 672.62 201.029 657.62 200.689C642.4 200.349 631.8 213.999 624.73 224.829C624.757 239.929 624.784 255.026 624.81 270.119C627.25 272.779 629.687 275.449 632.12 278.129C632.12 278.649 632.12 279.169 632.12 279.689C622.047 279.082 611.97 278.512 601.89 277.979C601.89 277.466 601.89 276.952 601.89 276.439C604.39 274.072 606.887 271.696 609.38 269.309C609.347 249.496 609.314 229.679 609.28 209.859C606.774 207.292 604.267 204.732 601.76 202.179C601.76 201.666 601.76 201.152 601.76 200.639C609.4 200.019 617.04 199.399 624.68 198.779C624.687 203.766 624.697 208.752 624.71 213.739C633.65 203.509 644.27 196.059 659.69 196.379C679.08 196.749 693.05 208.199 693.08 227.629C693.107 243.562 693.134 259.499 693.16 275.439Z" fill="url(#paint50_linear_400_432)"/>
<path d="M797 284.32C799.08 286.986 801.16 289.663 803.24 292.35V294.09C793.607 293.056 783.973 292.06 774.34 291.1C774.34 290.533 774.34 289.963 774.34 289.39C776.833 286.87 779.327 284.333 781.82 281.78C781.813 264.566 781.807 247.353 781.8 230.14C781.79 216.4 776.58 204.2 761.59 203.72C746.38 203.25 735.77 217.68 728.71 229.06C728.73 245.086 728.75 261.113 728.77 277.14C731.13 280.013 733.49 282.903 735.85 285.81C735.85 286.363 735.85 286.913 735.85 287.46C725.863 286.573 715.873 285.726 705.88 284.92C705.88 284.373 705.88 283.83 705.88 283.29C708.373 280.85 710.867 278.396 713.36 275.93C713.307 240.11 713.257 204.29 713.21 168.47C710.703 165.79 708.197 163.126 705.69 160.48C705.69 159.94 705.69 159.396 705.69 158.85C713.33 157.916 720.973 156.97 728.62 156.01C728.64 176.436 728.663 196.866 728.69 217.3C737.63 206.53 748.25 198.68 763.67 199.14C783.04 199.67 796.99 212.07 796.99 232.95C796.997 250.076 797 267.2 797 284.32Z" fill="url(#paint51_linear_400_432)"/>
</g>
</g>
</g>
<defs>
<linearGradient id="paint0_linear_400_432" x1="671.692" y1="155.376" x2="671.692" y2="94.746" gradientUnits="userSpaceOnUse">
<stop stop-color="white"/>
<stop offset="0.087" stop-color="#C7AA6D"/>
<stop offset="0.162" stop-color="#846132"/>
<stop offset="0.277" stop-color="#CAAE6F"/>
<stop offset="0.485" stop-color="#6C471D"/>
<stop offset="0.667" stop-color="#B6985D"/>
<stop offset="0.813" stop-color="#8E6C3B"/>
<stop offset="1" stop-color="#FFFFDA"/>
</linearGradient>
<linearGradient id="paint1_linear_400_432" x1="670.984" y1="154.669" x2="670.984" y2="95.4532" gradientUnits="userSpaceOnUse">
<stop stop-color="#5D4436"/>
<stop offset="0.194" stop-color="#EDC26C"/>
<stop offset="0.423" stop-color="#8A8A8A"/>
<stop offset="1" stop-color="#FFFFFA"/>
</linearGradient>
<linearGradient id="paint2_linear_400_432" x1="617.405" y1="96.5448" x2="669.948" y2="96.5448" gradientUnits="userSpaceOnUse">
<stop stop-color="#5D4436"/>
<stop offset="0.194" stop-color="#EDC26C"/>
<stop offset="0.423" stop-color="#8A8A8A"/>
<stop offset="1" stop-color="#FFFFFA"/>
</linearGradient>
<linearGradient id="paint3_linear_400_432" x1="616.372" y1="95.4532" x2="670.985" y2="95.4532" gradientUnits="userSpaceOnUse">
<stop stop-color="#5D4436"/>
<stop offset="0.194" stop-color="#EDC26C"/>
<stop offset="0.423" stop-color="#8A8A8A"/>
<stop offset="1" stop-color="#FFFFFA"/>
</linearGradient>
<linearGradient id="paint4_linear_400_432" x1="302.434" y1="148.985" x2="302.434" y2="8.39739" gradientUnits="userSpaceOnUse">
<stop stop-color="white"/>
<stop offset="0.087" stop-color="#C7AA6D"/>
<stop offset="0.162" stop-color="#846132"/>
<stop offset="0.277" stop-color="#CAAE6F"/>
<stop offset="0.485" stop-color="#6C471D"/>
<stop offset="0.667" stop-color="#B6985D"/>
<stop offset="0.813" stop-color="#8E6C3B"/>
<stop offset="1" stop-color="#FFFFDA"/>
</linearGradient>
<linearGradient id="paint5_linear_400_432" x1="385.552" y1="148.986" x2="385.552" y2="8.39778" gradientUnits="userSpaceOnUse">
<stop stop-color="white"/>
<stop offset="0.087" stop-color="#C7AA6D"/>
<stop offset="0.162" stop-color="#846132"/>
<stop offset="0.277" stop-color="#CAAE6F"/>
<stop offset="0.485" stop-color="#6C471D"/>
<stop offset="0.667" stop-color="#B6985D"/>
<stop offset="0.813" stop-color="#8E6C3B"/>
<stop offset="1" stop-color="#FFFFDA"/>
</linearGradient>
<linearGradient id="paint6_linear_400_432" x1="484.474" y1="148.985" x2="484.474" y2="8.39708" gradientUnits="userSpaceOnUse">
<stop stop-color="white"/>
<stop offset="0.087" stop-color="#C7AA6D"/>
<stop offset="0.162" stop-color="#846132"/>
<stop offset="0.277" stop-color="#CAAE6F"/>
<stop offset="0.485" stop-color="#6C471D"/>
<stop offset="0.667" stop-color="#B6985D"/>
<stop offset="0.813" stop-color="#8E6C3B"/>
<stop offset="1" stop-color="#FFFFDA"/>
</linearGradient>
<linearGradient id="paint7_linear_400_432" x1="600.042" y1="148.986" x2="600.042" y2="8.39792" gradientUnits="userSpaceOnUse">
<stop stop-color="white"/>
<stop offset="0.087" stop-color="#C7AA6D"/>
<stop offset="0.162" stop-color="#846132"/>
<stop offset="0.277" stop-color="#CAAE6F"/>
<stop offset="0.485" stop-color="#6C471D"/>
<stop offset="0.667" stop-color="#B6985D"/>
<stop offset="0.813" stop-color="#8E6C3B"/>
<stop offset="1" stop-color="#FFFFDA"/>
</linearGradient>
<linearGradient id="paint8_linear_400_432" x1="299.872" y1="147.125" x2="299.872" y2="10.2129" gradientUnits="userSpaceOnUse">
<stop stop-color="#5D4436"/>
<stop offset="0.194" stop-color="#EDC26C"/>
<stop offset="0.423" stop-color="#8A8A8A"/>
<stop offset="1" stop-color="#FFFFFA"/>
</linearGradient>
<linearGradient id="paint9_linear_400_432" x1="383.87" y1="147.124" x2="383.87" y2="10.2125" gradientUnits="userSpaceOnUse">
<stop stop-color="#5D4436"/>
<stop offset="0.194" stop-color="#EDC26C"/>
<stop offset="0.423" stop-color="#8A8A8A"/>
<stop offset="1" stop-color="#FFFFFA"/>
</linearGradient>
<linearGradient id="paint10_linear_400_432" x1="482.79" y1="147.124" x2="482.79" y2="10.2115" gradientUnits="userSpaceOnUse">
<stop stop-color="#5D4436"/>
<stop offset="0.194" stop-color="#EDC26C"/>
<stop offset="0.423" stop-color="#8A8A8A"/>
<stop offset="1" stop-color="#FFFFFA"/>
</linearGradient>
<linearGradient id="paint11_linear_400_432" x1="598.362" y1="147.124" x2="598.362" y2="10.2116" gradientUnits="userSpaceOnUse">
<stop stop-color="#5D4436"/>
<stop offset="0.194" stop-color="#EDC26C"/>
<stop offset="0.423" stop-color="#8A8A8A"/>
<stop offset="1" stop-color="#FFFFFA"/>
</linearGradient>
<linearGradient id="paint12_linear_400_432" x1="185.117" y1="12.6786" x2="326.358" y2="12.6786" gradientUnits="userSpaceOnUse">
<stop stop-color="#5D4436"/>
<stop offset="0.194" stop-color="#EDC26C"/>
<stop offset="0.423" stop-color="#8A8A8A"/>
<stop offset="1" stop-color="#FFFFFA"/>
</linearGradient>
<linearGradient id="paint13_linear_400_432" x1="292.467" y1="24.542" x2="405.979" y2="24.542" gradientUnits="userSpaceOnUse">
<stop stop-color="#5D4436"/>
<stop offset="0.194" stop-color="#EDC26C"/>
<stop offset="0.423" stop-color="#8A8A8A"/>
<stop offset="1" stop-color="#FFFFFA"/>
</linearGradient>
<linearGradient id="paint14_linear_400_432" x1="444.864" y1="41.8956" x2="482.283" y2="41.8956" gradientUnits="userSpaceOnUse">
<stop stop-color="#5D4436"/>
<stop offset="0.194" stop-color="#EDC26C"/>
<stop offset="0.423" stop-color="#8A8A8A"/>
<stop offset="1" stop-color="#FFFFFA"/>
</linearGradient>
<linearGradient id="paint15_linear_400_432" x1="492.385" y1="42.3183" x2="624.498" y2="42.3183" gradientUnits="userSpaceOnUse">
<stop stop-color="#5D4436"/>
<stop offset="0.194" stop-color="#EDC26C"/>
<stop offset="0.423" stop-color="#8A8A8A"/>
<stop offset="1" stop-color="#FFFFFA"/>
</linearGradient>
<linearGradient id="paint16_linear_400_432" x1="181.478" y1="10.2129" x2="332.583" y2="10.2129" gradientUnits="userSpaceOnUse">
<stop stop-color="#5D4436"/>
<stop offset="0.194" stop-color="#EDC26C"/>
<stop offset="0.423" stop-color="#8A8A8A"/>
<stop offset="1" stop-color="#FFFFFA"/>
</linearGradient>
<linearGradient id="paint17_linear_400_432" x1="290.002" y1="21.4845" x2="409.804" y2="21.4845" gradientUnits="userSpaceOnUse">
<stop stop-color="#5D4436"/>
<stop offset="0.194" stop-color="#EDC26C"/>
<stop offset="0.423" stop-color="#8A8A8A"/>
<stop offset="1" stop-color="#FFFFFA"/>
</linearGradient>
<linearGradient id="paint18_linear_400_432" x1="441.433" y1="37.5225" x2="494.219" y2="37.5225" gradientUnits="userSpaceOnUse">
<stop stop-color="#5D4436"/>
<stop offset="0.194" stop-color="#EDC26C"/>
<stop offset="0.423" stop-color="#8A8A8A"/>
<stop offset="1" stop-color="#FFFFFA"/>
</linearGradient>
<linearGradient id="paint19_linear_400_432" x1="488.557" y1="39.8513" x2="628.701" y2="39.8513" gradientUnits="userSpaceOnUse">
<stop stop-color="#5D4436"/>
<stop offset="0.194" stop-color="#EDC26C"/>
<stop offset="0.423" stop-color="#8A8A8A"/>
<stop offset="1" stop-color="#FFFFFA"/>
</linearGradient>
<linearGradient id="paint20_linear_400_432" x1="108.546" y1="295.968" x2="108.546" y2="154.101" gradientUnits="userSpaceOnUse">
<stop stop-color="white"/>
<stop offset="0.087" stop-color="#C7AA6D"/>
<stop offset="0.162" stop-color="#846132"/>
<stop offset="0.277" stop-color="#CAAE6F"/>
<stop offset="0.485" stop-color="#6C471D"/>
<stop offset="0.667" stop-color="#B6985D"/>
<stop offset="0.813" stop-color="#8E6C3B"/>
<stop offset="1" stop-color="#FFFFDA"/>
</linearGradient>
<linearGradient id="paint21_linear_400_432" x1="141.662" y1="295.967" x2="141.662" y2="154.1" gradientUnits="userSpaceOnUse">
<stop stop-color="white"/>
<stop offset="0.087" stop-color="#C7AA6D"/>
<stop offset="0.162" stop-color="#846132"/>
<stop offset="0.277" stop-color="#CAAE6F"/>
<stop offset="0.485" stop-color="#6C471D"/>
<stop offset="0.667" stop-color="#B6985D"/>
<stop offset="0.813" stop-color="#8E6C3B"/>
<stop offset="1" stop-color="#FFFFDA"/>
</linearGradient>
<linearGradient id="paint22_linear_400_432" x1="239.818" y1="295.967" x2="239.818" y2="154.1" gradientUnits="userSpaceOnUse">
<stop stop-color="white"/>
<stop offset="0.087" stop-color="#C7AA6D"/>
<stop offset="0.162" stop-color="#846132"/>
<stop offset="0.277" stop-color="#CAAE6F"/>
<stop offset="0.485" stop-color="#6C471D"/>
<stop offset="0.667" stop-color="#B6985D"/>
<stop offset="0.813" stop-color="#8E6C3B"/>
<stop offset="1" stop-color="#FFFFDA"/>
</linearGradient>
<linearGradient id="paint23_linear_400_432" x1="346.672" y1="295.967" x2="346.672" y2="154.1" gradientUnits="userSpaceOnUse">
<stop stop-color="white"/>
<stop offset="0.087" stop-color="#C7AA6D"/>
<stop offset="0.162" stop-color="#846132"/>
<stop offset="0.277" stop-color="#CAAE6F"/>
<stop offset="0.485" stop-color="#6C471D"/>
<stop offset="0.667" stop-color="#B6985D"/>
<stop offset="0.813" stop-color="#8E6C3B"/>
<stop offset="1" stop-color="#FFFFDA"/>
</linearGradient>
<linearGradient id="paint24_linear_400_432" x1="500.72" y1="295.969" x2="500.72" y2="154.102" gradientUnits="userSpaceOnUse">
<stop stop-color="white"/>
<stop offset="0.087" stop-color="#C7AA6D"/>
<stop offset="0.162" stop-color="#846132"/>
<stop offset="0.277" stop-color="#CAAE6F"/>
<stop offset="0.485" stop-color="#6C471D"/>
<stop offset="0.667" stop-color="#B6985D"/>
<stop offset="0.813" stop-color="#8E6C3B"/>
<stop offset="1" stop-color="#FFFFDA"/>
</linearGradient>
<linearGradient id="paint25_linear_400_432" x1="597.736" y1="295.968" x2="597.736" y2="154.101" gradientUnits="userSpaceOnUse">
<stop stop-color="white"/>
<stop offset="0.087" stop-color="#C7AA6D"/>
<stop offset="0.162" stop-color="#846132"/>
<stop offset="0.277" stop-color="#CAAE6F"/>
<stop offset="0.485" stop-color="#6C471D"/>
<stop offset="0.667" stop-color="#B6985D"/>
<stop offset="0.813" stop-color="#8E6C3B"/>
<stop offset="1" stop-color="#FFFFDA"/>
</linearGradient>
<linearGradient id="paint26_linear_400_432" x1="701.106" y1="295.967" x2="701.106" y2="154.1" gradientUnits="userSpaceOnUse">
<stop stop-color="white"/>
<stop offset="0.087" stop-color="#C7AA6D"/>
<stop offset="0.162" stop-color="#846132"/>
<stop offset="0.277" stop-color="#CAAE6F"/>
<stop offset="0.485" stop-color="#6C471D"/>
<stop offset="0.667" stop-color="#B6985D"/>
<stop offset="0.813" stop-color="#8E6C3B"/>
<stop offset="1" stop-color="#FFFFDA"/>
</linearGradient>
<linearGradient id="paint27_linear_400_432" x1="804.916" y1="295.968" x2="804.916" y2="154.102" gradientUnits="userSpaceOnUse">
<stop stop-color="white"/>
<stop offset="0.087" stop-color="#C7AA6D"/>
<stop offset="0.162" stop-color="#846132"/>
<stop offset="0.277" stop-color="#CAAE6F"/>
<stop offset="0.485" stop-color="#6C471D"/>
<stop offset="0.667" stop-color="#B6985D"/>
<stop offset="0.813" stop-color="#8E6C3B"/>
<stop offset="1" stop-color="#FFFFDA"/>
</linearGradient>
<linearGradient id="paint28_linear_400_432" x1="106.864" y1="294.096" x2="106.864" y2="156.008" gradientUnits="userSpaceOnUse">
<stop stop-color="#5D4436"/>
<stop offset="0.194" stop-color="#EDC26C"/>
<stop offset="0.423" stop-color="#8A8A8A"/>
<stop offset="1" stop-color="#FFFFFA"/>
</linearGradient>
<linearGradient id="paint29_linear_400_432" x1="139.978" y1="294.094" x2="139.978" y2="156.006" gradientUnits="userSpaceOnUse">
<stop stop-color="#5D4436"/>
<stop offset="0.194" stop-color="#EDC26C"/>
<stop offset="0.423" stop-color="#8A8A8A"/>
<stop offset="1" stop-color="#FFFFFA"/>
</linearGradient>
<linearGradient id="paint30_linear_400_432" x1="237.824" y1="294.096" x2="237.824" y2="156.008" gradientUnits="userSpaceOnUse">
<stop stop-color="#5D4436"/>
<stop offset="0.194" stop-color="#EDC26C"/>
<stop offset="0.423" stop-color="#8A8A8A"/>
<stop offset="1" stop-color="#FFFFFA"/>
</linearGradient>
<linearGradient id="paint31_linear_400_432" x1="344.992" y1="294.096" x2="344.992" y2="156.008" gradientUnits="userSpaceOnUse">
<stop stop-color="#5D4436"/>
<stop offset="0.194" stop-color="#EDC26C"/>
<stop offset="0.423" stop-color="#8A8A8A"/>
<stop offset="1" stop-color="#FFFFFA"/>
</linearGradient>
<linearGradient id="paint32_linear_400_432" x1="499.04" y1="294.095" x2="499.04" y2="156.007" gradientUnits="userSpaceOnUse">
<stop stop-color="#5D4436"/>
<stop offset="0.194" stop-color="#EDC26C"/>
<stop offset="0.423" stop-color="#8A8A8A"/>
<stop offset="1" stop-color="#FFFFFA"/>
</linearGradient>
<linearGradient id="paint33_linear_400_432" x1="596.052" y1="294.095" x2="596.052" y2="156.007" gradientUnits="userSpaceOnUse">
<stop stop-color="#5D4436"/>
<stop offset="0.194" stop-color="#EDC26C"/>
<stop offset="0.423" stop-color="#8A8A8A"/>
<stop offset="1" stop-color="#FFFFFA"/>
</linearGradient>
<linearGradient id="paint34_linear_400_432" x1="699.42" y1="294.094" x2="699.42" y2="156.006" gradientUnits="userSpaceOnUse">
<stop stop-color="#5D4436"/>
<stop offset="0.194" stop-color="#EDC26C"/>
<stop offset="0.423" stop-color="#8A8A8A"/>
<stop offset="1" stop-color="#FFFFFA"/>
</linearGradient>
<linearGradient id="paint35_linear_400_432" x1="803.236" y1="294.094" x2="803.236" y2="156.008" gradientUnits="userSpaceOnUse">
<stop stop-color="#5D4436"/>
<stop offset="0.194" stop-color="#EDC26C"/>
<stop offset="0.423" stop-color="#8A8A8A"/>
<stop offset="1" stop-color="#FFFFFA"/>
</linearGradient>
<linearGradient id="paint36_linear_400_432" x1="17.8218" y1="158.472" x2="102.046" y2="158.472" gradientUnits="userSpaceOnUse">
<stop stop-color="#5D4436"/>
<stop offset="0.194" stop-color="#EDC26C"/>
<stop offset="0.423" stop-color="#8A8A8A"/>
<stop offset="1" stop-color="#FFFFFA"/>
</linearGradient>
<linearGradient id="paint37_linear_400_432" x1="113.669" y1="172.588" x2="135.917" y2="172.588" gradientUnits="userSpaceOnUse">
<stop stop-color="#5D4436"/>
<stop offset="0.194" stop-color="#EDC26C"/>
<stop offset="0.423" stop-color="#8A8A8A"/>
<stop offset="1" stop-color="#FFFFFA"/>
</linearGradient>
<linearGradient id="paint38_linear_400_432" x1="149.597" y1="169.899" x2="234.847" y2="169.899" gradientUnits="userSpaceOnUse">
<stop stop-color="#5D4436"/>
<stop offset="0.194" stop-color="#EDC26C"/>
<stop offset="0.423" stop-color="#8A8A8A"/>
<stop offset="1" stop-color="#FFFFFA"/>
</linearGradient>
<linearGradient id="paint39_linear_400_432" x1="250.464" y1="199.547" x2="340.528" y2="199.547" gradientUnits="userSpaceOnUse">
<stop stop-color="#5D4436"/>
<stop offset="0.194" stop-color="#EDC26C"/>
<stop offset="0.423" stop-color="#8A8A8A"/>
<stop offset="1" stop-color="#FFFFFA"/>
</linearGradient>
<linearGradient id="paint40_linear_400_432" x1="405.491" y1="158.765" x2="494.555" y2="158.765" gradientUnits="userSpaceOnUse">
<stop stop-color="#5D4436"/>
<stop offset="0.194" stop-color="#EDC26C"/>
<stop offset="0.423" stop-color="#8A8A8A"/>
<stop offset="1" stop-color="#FFFFFA"/>
</linearGradient>
<linearGradient id="paint41_linear_400_432" x1="509.198" y1="172.557" x2="591.524" y2="172.557" gradientUnits="userSpaceOnUse">
<stop stop-color="#5D4436"/>
<stop offset="0.194" stop-color="#EDC26C"/>
<stop offset="0.423" stop-color="#8A8A8A"/>
<stop offset="1" stop-color="#FFFFFA"/>
</linearGradient>
<linearGradient id="paint42_linear_400_432" x1="605.805" y1="199.168" x2="695.175" y2="199.168" gradientUnits="userSpaceOnUse">
<stop stop-color="#5D4436"/>
<stop offset="0.194" stop-color="#EDC26C"/>
<stop offset="0.423" stop-color="#8A8A8A"/>
<stop offset="1" stop-color="#FFFFFA"/>
</linearGradient>
<linearGradient id="paint43_linear_400_432" x1="709.456" y1="158.801" x2="799.214" y2="158.801" gradientUnits="userSpaceOnUse">
<stop stop-color="#5D4436"/>
<stop offset="0.194" stop-color="#EDC26C"/>
<stop offset="0.423" stop-color="#8A8A8A"/>
<stop offset="1" stop-color="#FFFFFA"/>
</linearGradient>
<linearGradient id="paint44_linear_400_432" x1="14.0841" y1="156.006" x2="106.864" y2="156.006" gradientUnits="userSpaceOnUse">
<stop stop-color="#5D4436"/>
<stop offset="0.194" stop-color="#EDC26C"/>
<stop offset="0.423" stop-color="#8A8A8A"/>
<stop offset="1" stop-color="#FFFFFA"/>
</linearGradient>
<linearGradient id="paint45_linear_400_432" x1="109.777" y1="170.123" x2="139.979" y2="170.123" gradientUnits="userSpaceOnUse">
<stop stop-color="#5D4436"/>
<stop offset="0.194" stop-color="#EDC26C"/>
<stop offset="0.423" stop-color="#8A8A8A"/>
<stop offset="1" stop-color="#FFFFFA"/>
</linearGradient>
<linearGradient id="paint46_linear_400_432" x1="147.132" y1="166.889" x2="237.824" y2="166.889" gradientUnits="userSpaceOnUse">
<stop stop-color="#5D4436"/>
<stop offset="0.194" stop-color="#EDC26C"/>
<stop offset="0.423" stop-color="#8A8A8A"/>
<stop offset="1" stop-color="#FFFFFA"/>
</linearGradient>
<linearGradient id="paint47_linear_400_432" x1="246.418" y1="196.812" x2="344.992" y2="196.812" gradientUnits="userSpaceOnUse">
<stop stop-color="#5D4436"/>
<stop offset="0.194" stop-color="#EDC26C"/>
<stop offset="0.423" stop-color="#8A8A8A"/>
<stop offset="1" stop-color="#FFFFFA"/>
</linearGradient>
<linearGradient id="paint48_linear_400_432" x1="401.354" y1="156.006" x2="499.038" y2="156.006" gradientUnits="userSpaceOnUse">
<stop stop-color="#5D4436"/>
<stop offset="0.194" stop-color="#EDC26C"/>
<stop offset="0.423" stop-color="#8A8A8A"/>
<stop offset="1" stop-color="#FFFFFA"/>
</linearGradient>
<linearGradient id="paint49_linear_400_432" x1="506.733" y1="170.091" x2="596.053" y2="170.091" gradientUnits="userSpaceOnUse">
<stop stop-color="#5D4436"/>
<stop offset="0.194" stop-color="#EDC26C"/>
<stop offset="0.423" stop-color="#8A8A8A"/>
<stop offset="1" stop-color="#FFFFFA"/>
</linearGradient>
<linearGradient id="paint50_linear_400_432" x1="601.756" y1="196.369" x2="699.42" y2="196.369" gradientUnits="userSpaceOnUse">
<stop stop-color="#5D4436"/>
<stop offset="0.194" stop-color="#EDC26C"/>
<stop offset="0.423" stop-color="#8A8A8A"/>
<stop offset="1" stop-color="#FFFFFA"/>
</linearGradient>
<linearGradient id="paint51_linear_400_432" x1="705.692" y1="156.007" x2="803.236" y2="156.007" gradientUnits="userSpaceOnUse">
<stop stop-color="#5D4436"/>
<stop offset="0.194" stop-color="#EDC26C"/>
<stop offset="0.423" stop-color="#8A8A8A"/>
<stop offset="1" stop-color="#FFFFFA"/>
</linearGradient>
<clipPath id="clip0_400_432">
<rect width="830" height="324" fill="white"/>
</clipPath>
</defs>
</svg>
